<?xml version="1.0" standalone="no"?>
<!DOCTYPE svg PUBLIC "-//W3C//DTD SVG 20010904//EN"
 "http://www.w3.org/TR/2001/REC-SVG-20010904/DTD/svg10.dtd">
<svg version="1.0" xmlns="http://www.w3.org/2000/svg"
 width="365.000000pt" height="375.000000pt" viewBox="0 0 365.000000 375.000000"
 preserveAspectRatio="xMidYMid meet">

<g transform="translate(0.000000,375.000000) scale(0.100000,-0.100000)"
fill="#000000" stroke="none">
<path d="M1820 3245 c0 -97 -4 -155 -10 -155 -6 0 -10 -45 -10 -115 0 -63 -4
-115 -9 -115 -4 0 -11 -48 -15 -107 -4 -60 -11 -109 -16 -111 -6 -2 -10 -19
-10 -38 0 -19 -4 -34 -10 -34 -5 0 -10 -13 -10 -30 0 -16 -4 -30 -10 -30 -5 0
-10 -11 -10 -25 0 -14 -4 -25 -10 -25 -5 0 -10 -9 -10 -20 0 -11 -4 -20 -9
-20 -5 0 -12 -16 -15 -35 -4 -19 -11 -35 -16 -35 -6 0 -10 -9 -10 -20 0 -11
-4 -20 -10 -20 -5 0 -10 -5 -10 -10 0 -6 -11 -22 -25 -36 -14 -14 -25 -33 -25
-42 0 -10 -10 -24 -21 -32 -12 -8 -27 -21 -35 -27 -7 -7 -20 -13 -28 -13 -9 0
-16 -4 -16 -10 0 -17 -50 -60 -70 -60 -11 0 -20 -4 -20 -10 0 -5 -7 -10 -15
-10 -8 0 -15 -4 -15 -10 0 -5 -9 -10 -20 -10 -11 0 -20 -4 -20 -10 0 -5 -9
-10 -20 -10 -11 0 -20 -4 -20 -10 0 -5 -11 -10 -24 -10 -13 0 -26 -5 -28 -10
-2 -6 -27 -13 -56 -17 -28 -3 -52 -10 -52 -14 0 -5 -16 -9 -35 -9 -19 0 -35
-4 -35 -10 0 -5 -20 -10 -45 -10 -25 0 -45 -4 -45 -10 0 -6 -32 -10 -75 -10
-43 0 -75 -4 -75 -10 0 -6 -58 -10 -155 -10 -90 0 -155 -4 -155 -9 0 -6 -17
-12 -37 -14 -21 -2 44 -4 145 -5 113 -1 182 -6 182 -12 0 -6 32 -10 75 -10 43
0 75 -4 75 -10 0 -5 25 -10 55 -10 30 0 55 -4 55 -10 0 -5 16 -10 35 -10 19 0
35 -4 35 -9 0 -5 25 -12 55 -16 30 -3 55 -11 55 -16 0 -5 11 -9 25 -9 14 0 25
-4 25 -10 0 -5 9 -10 20 -10 11 0 20 -4 20 -10 0 -5 9 -10 20 -10 11 0 20 -4
20 -10 0 -5 7 -10 15 -10 8 0 15 -4 15 -10 0 -5 12 -13 28 -16 26 -7 62 -39
62 -56 0 -4 9 -8 20 -8 11 0 20 -4 20 -9 0 -5 9 -13 20 -16 11 -3 20 -13 20
-21 0 -15 8 -27 48 -69 12 -13 22 -29 22 -35 0 -5 5 -10 10 -10 6 0 10 -9 10
-20 0 -11 4 -20 10 -20 5 0 12 -16 16 -35 3 -19 10 -35 15 -35 5 0 9 -9 9 -20
0 -11 5 -20 10 -20 6 0 10 -11 10 -25 0 -14 5 -25 10 -25 6 0 10 -13 10 -30 0
-16 5 -30 10 -30 6 0 10 -16 10 -35 0 -19 4 -35 9 -35 5 0 12 -49 16 -110 4
-60 11 -110 16 -110 5 0 9 -52 9 -115 0 -70 4 -115 10 -115 6 0 10 -58 10
-155 0 -97 4 -155 10 -155 6 0 10 82 10 225 0 143 4 225 10 225 6 0 10 32 10
75 0 41 4 75 9 75 5 0 12 45 16 100 3 55 11 100 16 100 5 0 9 11 9 25 0 14 5
25 10 25 6 0 10 14 10 30 0 17 5 30 10 30 6 0 10 11 10 25 0 14 4 25 9 25 5 0
12 16 15 35 4 19 11 35 16 35 6 0 10 9 10 20 0 11 5 20 10 20 6 0 10 9 10 19
0 11 9 23 20 26 11 3 20 13 20 21 0 8 6 22 13 30 25 30 55 59 76 74 11 8 24
22 27 32 3 10 12 18 20 18 9 0 22 7 30 15 9 8 24 15 34 15 10 0 22 9 25 20 3
11 15 20 26 20 10 0 19 5 19 10 0 6 11 10 25 10 14 0 25 5 25 10 0 6 9 10 20
10 11 0 20 4 20 9 0 5 29 13 65 16 36 4 65 11 65 16 0 5 16 9 35 9 19 0 35 5
35 10 0 6 25 10 55 10 30 0 55 5 55 10 0 6 28 10 65 10 37 0 65 4 65 10 0 6
68 11 183 11 100 1 170 4 155 6 -16 2 -28 9 -28 14 0 5 -66 9 -155 9 -97 0
-155 4 -155 10 0 6 -32 10 -75 10 -43 0 -75 4 -75 10 0 6 -20 10 -45 10 -25 0
-45 5 -45 10 0 6 -20 10 -45 10 -25 0 -45 4 -45 9 0 5 -25 13 -55 16 -30 4
-55 11 -55 16 0 5 -9 9 -20 9 -11 0 -20 5 -20 10 0 6 -11 10 -25 10 -14 0 -25
5 -25 10 0 6 -9 10 -19 10 -11 0 -23 9 -26 20 -3 11 -15 20 -25 20 -10 0 -25
7 -34 15 -8 8 -21 15 -30 15 -8 0 -17 8 -20 18 -3 10 -16 24 -27 32 -21 15
-51 44 -76 74 -7 8 -13 22 -13 30 0 8 -9 18 -20 21 -11 3 -20 15 -20 26 0 10
-4 19 -10 19 -5 0 -10 9 -10 20 0 11 -4 20 -10 20 -5 0 -12 16 -16 35 -3 19
-10 35 -15 35 -5 0 -9 11 -9 25 0 14 -4 25 -10 25 -5 0 -10 14 -10 30 0 17 -4
30 -10 30 -5 0 -10 11 -10 25 0 14 -4 25 -9 25 -5 0 -13 45 -16 100 -4 55 -11
100 -16 100 -5 0 -9 34 -9 75 0 43 -4 75 -10 75 -6 0 -10 82 -10 225 0 143 -4
225 -10 225 -6 0 -10 -58 -10 -155z"/>
</g>
</svg>
