<?xml version="1.0" standalone="no"?>
<!DOCTYPE svg PUBLIC "-//W3C//DTD SVG 20010904//EN"
 "http://www.w3.org/TR/2001/REC-SVG-20010904/DTD/svg10.dtd">
<svg version="1.0" xmlns="http://www.w3.org/2000/svg"
 width="356.000000pt" height="359.000000pt" viewBox="0 0 356.000000 359.000000"
 preserveAspectRatio="xMidYMid meet">
<metadata>
Created by potrace 1.16, written by Peter Selinger 2001-2019
</metadata>
<g transform="translate(0.000000,359.000000) scale(0.100000,-0.100000)"
fill="#000000" stroke="none">
<path d="M1756 3358 c-22 -292 -42 -466 -67 -588 -85 -416 -298 -687 -644
-821 -191 -74 -382 -109 -771 -139 -143 -11 -263 -22 -269 -24 -17 -6 52 -15
200 -26 249 -19 497 -50 615 -76 473 -106 731 -351 844 -801 35 -141 62 -332
87 -618 12 -137 25 -254 29 -258 4 -5 10 43 14 105 11 183 36 445 52 558 86
599 363 906 919 1020 117 24 296 46 525 65 197 16 274 24 268 30 -1 2 -102 11
-223 20 -490 36 -673 70 -889 164 -140 61 -305 201 -390 330 -156 236 -222
515 -258 1094 -6 108 -15 197 -18 197 -4 0 -14 -105 -24 -232z"/>
</g>
</svg>
