<svg id="svg" version="1.1" xmlns="http://www.w3.org/2000/svg" xmlns:xlink="http://www.w3.org/1999/xlink" width="400" height="403.3707865168539" viewBox="0, 0, 400,403.3707865168539"><g id="svgg"><path id="path0" d="M198.400 6.357 C 198.400 11.639,198.299 12.753,197.800 12.945 C 197.298 13.137,197.200 14.342,197.200 20.354 C 197.200 25.742,197.075 27.575,196.700 27.699 C 196.332 27.822,196.167 29.706,196.075 34.833 C 196.006 38.665,195.781 41.971,195.575 42.180 C 195.369 42.389,195.200 45.205,195.200 48.437 C 195.200 53.292,195.096 54.354,194.600 54.545 C 194.108 54.733,194.000 55.741,194.000 60.145 C 194.000 64.549,193.892 65.556,193.400 65.745 C 192.917 65.930,192.800 66.834,192.800 70.387 C 192.800 74.043,192.697 74.800,192.200 74.800 C 191.707 74.800,191.600 75.511,191.600 78.800 C 191.600 82.089,191.493 82.800,191.000 82.800 C 190.517 82.800,190.400 83.417,190.400 85.957 C 190.400 88.395,190.263 89.167,189.800 89.345 C 189.367 89.511,189.200 90.190,189.200 91.787 C 189.200 93.004,189.020 94.000,188.800 94.000 C 188.571 94.000,188.400 95.200,188.400 96.800 C 188.400 99.022,188.276 99.600,187.800 99.600 C 187.339 99.600,187.200 100.111,187.200 101.800 C 187.200 103.489,187.061 104.000,186.600 104.000 C 186.169 104.000,186.000 104.440,186.000 105.557 C 186.000 106.572,185.791 107.195,185.400 107.345 C 185.020 107.490,184.800 108.104,184.800 109.016 C 184.800 109.809,184.530 110.727,184.200 111.057 C 183.870 111.387,183.600 112.174,183.600 112.805 C 183.600 113.436,183.420 114.064,183.200 114.200 C 182.980 114.336,182.800 115.157,182.800 116.024 C 182.800 117.158,182.632 117.600,182.200 117.600 C 181.767 117.600,181.600 118.044,181.600 119.200 C 181.600 120.356,181.433 120.800,181.000 120.800 C 180.600 120.800,180.400 121.200,180.400 122.000 C 180.400 122.800,180.200 123.200,179.800 123.200 C 179.448 123.200,179.195 123.572,179.187 124.100 C 179.180 124.595,178.910 125.349,178.587 125.776 C 178.264 126.204,178.000 127.059,178.000 127.676 C 178.000 128.294,177.820 128.800,177.600 128.800 C 177.380 128.800,177.200 129.250,177.200 129.800 C 177.200 130.422,176.973 130.800,176.600 130.800 C 176.200 130.800,176.000 131.200,176.000 132.000 C 176.000 132.800,175.800 133.200,175.400 133.200 C 175.070 133.200,174.800 133.451,174.800 133.757 C 174.800 134.064,174.530 134.418,174.200 134.545 C 173.870 134.671,173.600 135.036,173.600 135.355 C 173.600 136.032,172.339 138.538,171.900 138.733 C 171.735 138.807,171.600 139.392,171.600 140.033 C 171.600 140.675,171.422 141.200,171.205 141.200 C 170.423 141.200,169.200 142.596,169.200 143.489 C 169.200 144.032,168.958 144.400,168.600 144.400 C 168.270 144.400,168.000 144.670,168.000 145.000 C 168.000 145.330,167.730 145.600,167.400 145.600 C 167.070 145.600,166.800 145.870,166.800 146.200 C 166.800 146.530,166.620 146.800,166.400 146.800 C 166.180 146.800,166.000 147.250,166.000 147.800 C 166.000 148.422,165.773 148.800,165.400 148.800 C 165.070 148.800,164.800 149.070,164.800 149.400 C 164.800 149.730,164.530 150.000,164.200 150.000 C 163.870 150.000,163.592 150.225,163.583 150.500 C 163.574 150.775,163.034 151.442,162.383 151.981 C 161.732 152.521,161.200 153.286,161.200 153.681 C 161.200 154.077,160.930 154.400,160.600 154.400 C 160.270 154.400,160.000 154.670,160.000 155.000 C 160.000 155.330,159.820 155.600,159.600 155.600 C 159.380 155.600,159.200 155.870,159.200 156.200 C 159.200 156.530,158.930 156.800,158.600 156.800 C 158.270 156.800,158.000 157.070,158.000 157.400 C 158.000 157.730,157.806 158.000,157.568 158.000 C 157.006 158.000,153.600 161.406,153.600 161.968 C 153.600 162.206,153.330 162.400,153.000 162.400 C 152.670 162.400,152.400 162.670,152.400 163.000 C 152.400 163.330,152.130 163.600,151.800 163.600 C 151.470 163.600,151.200 163.870,151.200 164.200 C 151.200 164.573,150.822 164.800,150.200 164.800 C 149.650 164.800,149.200 164.980,149.200 165.200 C 149.200 165.420,148.930 165.600,148.600 165.600 C 148.270 165.600,148.000 165.870,148.000 166.200 C 148.000 166.530,147.730 166.800,147.400 166.800 C 147.070 166.800,146.800 167.070,146.800 167.400 C 146.800 167.775,146.421 168.000,145.787 168.000 C 145.231 168.000,144.671 168.270,144.545 168.600 C 144.418 168.930,144.064 169.200,143.757 169.200 C 143.451 169.200,143.200 169.393,143.200 169.629 C 143.200 170.338,142.112 171.200,141.216 171.200 C 140.753 171.200,140.271 171.470,140.145 171.800 C 140.018 172.130,139.664 172.400,139.357 172.400 C 139.051 172.400,138.800 172.670,138.800 173.000 C 138.800 173.375,138.421 173.600,137.787 173.600 C 137.231 173.600,136.671 173.870,136.545 174.200 C 136.418 174.530,135.884 174.800,135.357 174.800 C 134.773 174.800,134.400 175.034,134.400 175.400 C 134.400 175.730,134.130 176.000,133.800 176.000 C 133.470 176.000,133.200 176.180,133.200 176.400 C 133.200 176.620,132.744 176.800,132.187 176.800 C 131.631 176.800,131.071 177.070,130.945 177.400 C 130.818 177.730,130.284 178.000,129.757 178.000 C 129.173 178.000,128.800 178.234,128.800 178.600 C 128.800 179.000,128.400 179.200,127.600 179.200 C 126.800 179.200,126.400 179.400,126.400 179.800 C 126.400 180.173,126.022 180.400,125.400 180.400 C 124.778 180.400,124.400 180.627,124.400 181.000 C 124.400 181.400,124.000 181.600,123.200 181.600 C 122.540 181.600,122.000 181.780,122.000 182.000 C 122.000 182.220,121.364 182.400,120.587 182.400 C 119.701 182.400,119.089 182.623,118.945 183.000 C 118.813 183.342,118.217 183.600,117.557 183.600 C 116.795 183.600,116.400 183.805,116.400 184.200 C 116.400 184.634,115.954 184.800,114.787 184.800 C 113.723 184.800,113.097 185.004,112.945 185.400 C 112.795 185.791,112.172 186.000,111.157 186.000 C 110.040 186.000,109.600 186.169,109.600 186.600 C 109.600 187.033,109.156 187.200,108.000 187.200 C 107.120 187.200,106.400 187.380,106.400 187.600 C 106.400 187.820,105.674 188.000,104.787 188.000 C 103.723 188.000,103.097 188.204,102.945 188.600 C 102.783 189.021,102.127 189.200,100.745 189.200 C 99.363 189.200,98.706 189.379,98.545 189.800 C 98.383 190.221,97.727 190.400,96.345 190.400 C 94.963 190.400,94.306 190.579,94.145 191.000 C 93.979 191.431,93.304 191.600,91.745 191.600 C 90.185 191.600,89.510 191.769,89.345 192.200 C 89.174 192.645,88.466 192.800,86.600 192.800 C 84.734 192.800,84.026 192.955,83.855 193.400 C 83.684 193.848,82.968 194.000,81.036 194.000 C 79.612 194.000,78.336 194.180,78.200 194.400 C 78.064 194.620,76.523 194.800,74.776 194.800 C 72.220 194.800,71.600 194.917,71.600 195.400 C 71.600 195.897,70.843 196.000,67.187 196.000 C 63.634 196.000,62.730 196.117,62.545 196.600 C 62.357 197.089,61.395 197.200,57.357 197.200 C 53.217 197.200,52.400 197.299,52.400 197.800 C 52.400 198.310,51.378 198.400,45.600 198.400 C 39.822 198.400,38.800 198.490,38.800 199.000 C 38.800 199.511,37.733 199.600,31.600 199.600 C 27.067 199.600,24.400 199.748,24.400 200.000 C 24.400 200.252,21.692 200.400,17.076 200.400 C 11.256 200.400,9.594 200.521,8.976 200.987 C 8.414 201.413,7.070 201.578,4.100 201.587 L 0.000 201.600 0.000 202.800 C 0.000 203.901,0.114 204.000,1.376 204.000 C 2.133 204.000,2.864 204.180,3.000 204.400 C 3.149 204.640,5.871 204.800,9.824 204.800 C 15.403 204.800,16.400 204.891,16.400 205.400 C 16.400 205.910,17.422 206.000,23.200 206.000 C 28.978 206.000,30.000 206.090,30.000 206.600 C 30.000 207.108,30.956 207.200,36.200 207.200 C 41.444 207.200,42.400 207.292,42.400 207.800 C 42.400 208.304,43.270 208.400,47.829 208.400 C 52.121 208.400,53.383 208.526,53.857 209.000 C 54.320 209.463,55.498 209.600,59.029 209.600 C 61.810 209.600,63.600 209.757,63.600 210.000 C 63.600 210.242,65.319 210.400,67.957 210.400 C 71.461 210.400,72.359 210.517,72.545 211.000 C 72.727 211.475,73.568 211.600,76.587 211.600 C 79.710 211.600,80.400 211.709,80.400 212.200 C 80.400 212.676,80.978 212.800,83.200 212.800 C 85.422 212.800,86.000 212.924,86.000 213.400 C 86.000 213.876,86.578 214.000,88.800 214.000 C 91.022 214.000,91.600 214.124,91.600 214.600 C 91.600 215.062,92.114 215.200,93.829 215.200 C 95.276 215.200,96.267 215.410,96.657 215.800 C 97.010 216.153,97.987 216.400,99.029 216.400 C 100.003 216.400,100.800 216.580,100.800 216.800 C 100.800 217.020,101.790 217.200,103.000 217.200 C 104.689 217.200,105.200 217.339,105.200 217.800 C 105.200 218.233,105.644 218.400,106.800 218.400 C 107.956 218.400,108.400 218.567,108.400 219.000 C 108.400 219.444,108.867 219.600,110.200 219.600 C 111.533 219.600,112.000 219.756,112.000 220.200 C 112.000 220.631,112.440 220.800,113.557 220.800 C 114.572 220.800,115.195 221.009,115.345 221.400 C 115.471 221.730,116.031 222.000,116.587 222.000 C 117.144 222.000,117.600 222.180,117.600 222.400 C 117.600 222.620,118.320 222.800,119.200 222.800 C 120.356 222.800,120.800 222.967,120.800 223.400 C 120.800 223.800,121.200 224.000,122.000 224.000 C 122.800 224.000,123.200 224.200,123.200 224.600 C 123.200 224.995,123.595 225.200,124.357 225.200 C 125.017 225.200,125.613 225.458,125.745 225.800 C 125.871 226.130,126.341 226.400,126.787 226.400 C 127.234 226.400,127.600 226.566,127.600 226.768 C 127.600 226.971,128.140 227.255,128.800 227.400 C 129.460 227.545,130.000 227.829,130.000 228.032 C 130.000 228.234,130.450 228.400,131.000 228.400 C 131.622 228.400,132.000 228.627,132.000 229.000 C 132.000 229.400,132.400 229.600,133.200 229.600 C 134.000 229.600,134.400 229.800,134.400 230.200 C 134.400 230.530,134.751 230.800,135.179 230.800 C 135.608 230.800,136.449 231.254,137.048 231.810 C 137.647 232.365,138.557 232.924,139.069 233.053 C 139.581 233.182,140.000 233.447,140.000 233.643 C 140.000 233.840,140.270 234.000,140.600 234.000 C 140.930 234.000,141.200 234.270,141.200 234.600 C 141.200 234.973,141.578 235.200,142.200 235.200 C 142.822 235.200,143.200 235.427,143.200 235.800 C 143.200 236.130,143.451 236.400,143.757 236.400 C 144.064 236.400,144.418 236.670,144.545 237.000 C 144.671 237.330,145.231 237.600,145.787 237.600 C 146.421 237.600,146.800 237.825,146.800 238.200 C 146.800 238.530,146.986 238.800,147.213 238.800 C 147.731 238.800,150.000 241.091,150.000 241.614 C 150.000 241.826,150.225 242.008,150.500 242.017 C 150.775 242.026,151.442 242.566,151.981 243.217 C 152.521 243.868,153.205 244.400,153.500 244.400 C 153.796 244.400,154.455 244.850,154.965 245.400 C 155.475 245.950,156.096 246.400,156.346 246.400 C 156.596 246.400,156.800 246.670,156.800 247.000 C 156.800 247.330,157.070 247.600,157.400 247.600 C 157.730 247.600,158.000 247.870,158.000 248.200 C 158.000 248.530,158.270 248.800,158.600 248.800 C 158.938 248.800,159.200 249.158,159.200 249.619 C 159.200 250.070,159.650 250.855,160.200 251.365 C 160.750 251.875,161.200 252.496,161.200 252.746 C 161.200 252.996,161.470 253.200,161.800 253.200 C 162.130 253.200,162.400 253.470,162.400 253.800 C 162.400 254.130,162.670 254.400,163.000 254.400 C 163.330 254.400,163.600 254.670,163.600 255.000 C 163.600 255.330,163.870 255.600,164.200 255.600 C 164.573 255.600,164.800 255.978,164.800 256.600 C 164.800 257.222,165.027 257.600,165.400 257.600 C 165.730 257.600,166.000 257.870,166.000 258.200 C 166.000 258.530,166.180 258.800,166.400 258.800 C 166.620 258.800,166.800 259.070,166.800 259.400 C 166.800 259.730,167.070 260.000,167.400 260.000 C 167.758 260.000,168.000 260.368,168.000 260.911 C 168.000 261.804,169.223 263.200,170.005 263.200 C 170.222 263.200,170.400 263.740,170.400 264.400 C 170.400 265.200,170.600 265.600,171.000 265.600 C 171.330 265.600,171.600 265.900,171.600 266.266 C 171.600 267.164,172.873 270.000,173.277 270.000 C 173.455 270.000,173.600 270.270,173.600 270.600 C 173.600 270.930,173.870 271.200,174.200 271.200 C 174.600 271.200,174.800 271.600,174.800 272.400 C 174.800 273.200,175.000 273.600,175.400 273.600 C 175.773 273.600,176.000 273.978,176.000 274.600 C 176.000 275.222,176.227 275.600,176.600 275.600 C 177.000 275.600,177.200 276.000,177.200 276.800 C 177.200 277.460,177.380 278.000,177.600 278.000 C 177.820 278.000,178.000 278.527,178.000 279.171 C 178.000 279.816,178.270 280.613,178.600 280.943 C 178.930 281.273,179.200 282.006,179.200 282.571 C 179.200 283.219,179.422 283.600,179.800 283.600 C 180.233 283.600,180.400 284.044,180.400 285.200 C 180.400 286.356,180.567 286.800,181.000 286.800 C 181.400 286.800,181.600 287.200,181.600 288.000 C 181.600 288.800,181.800 289.200,182.200 289.200 C 182.633 289.200,182.800 289.644,182.800 290.800 C 182.800 291.680,182.980 292.400,183.200 292.400 C 183.420 292.400,183.600 293.126,183.600 294.013 C 183.600 295.077,183.804 295.703,184.200 295.855 C 184.631 296.021,184.800 296.694,184.800 298.243 C 184.800 299.894,184.941 300.400,185.400 300.400 C 185.854 300.400,186.000 300.890,186.000 302.413 C 186.000 303.832,186.177 304.493,186.600 304.655 C 187.031 304.821,187.200 305.496,187.200 307.055 C 187.200 308.615,187.369 309.290,187.800 309.455 C 188.231 309.621,188.400 310.294,188.400 311.843 C 188.400 313.029,188.580 314.000,188.800 314.000 C 189.028 314.000,189.200 315.190,189.200 316.771 C 189.200 318.702,189.382 319.725,189.800 320.143 C 190.234 320.577,190.400 321.635,190.400 323.971 C 190.400 326.575,190.516 327.200,191.000 327.200 C 191.491 327.200,191.600 327.890,191.600 331.013 C 191.600 334.032,191.725 334.873,192.200 335.055 C 192.677 335.239,192.800 336.094,192.800 339.243 C 192.800 342.494,192.907 343.200,193.400 343.200 C 193.901 343.200,194.000 344.022,194.000 348.200 C 194.000 352.378,194.099 353.200,194.600 353.200 C 195.105 353.200,195.200 354.089,195.200 358.800 C 195.200 362.267,195.352 364.400,195.600 364.400 C 195.849 364.400,196.000 366.708,196.000 370.524 C 196.000 375.289,196.130 376.819,196.587 377.424 C 197.043 378.026,197.177 379.571,197.187 384.300 C 197.198 389.450,197.293 390.400,197.800 390.400 C 198.307 390.400,198.400 391.350,198.400 396.553 C 198.400 402.596,198.416 402.711,199.300 402.948 C 201.668 403.583,201.600 403.764,201.600 396.843 C 201.600 391.561,201.701 390.447,202.200 390.255 C 202.706 390.061,202.800 388.748,202.800 381.855 C 202.800 374.962,202.894 373.650,203.400 373.455 C 203.900 373.264,204.000 372.126,204.000 366.655 C 204.000 361.185,204.100 360.047,204.600 359.855 C 205.097 359.665,205.200 358.588,205.200 353.613 C 205.200 349.871,205.351 347.600,205.600 347.600 C 205.845 347.600,206.000 345.667,206.000 342.600 C 206.000 338.422,206.099 337.600,206.600 337.600 C 207.099 337.600,207.200 336.822,207.200 333.000 C 207.200 329.178,207.301 328.400,207.800 328.400 C 208.286 328.400,208.400 327.756,208.400 325.000 C 208.400 322.244,208.514 321.600,209.000 321.600 C 209.483 321.600,209.600 320.983,209.600 318.443 C 209.600 316.005,209.737 315.233,210.200 315.055 C 210.633 314.889,210.800 314.210,210.800 312.613 C 210.800 311.396,210.980 310.400,211.200 310.400 C 211.429 310.400,211.600 309.200,211.600 307.600 C 211.600 305.378,211.724 304.800,212.200 304.800 C 212.631 304.800,212.800 304.360,212.800 303.243 C 212.800 302.228,213.009 301.605,213.400 301.455 C 213.821 301.294,214.000 300.637,214.000 299.255 C 214.000 297.873,214.179 297.217,214.600 297.055 C 214.996 296.903,215.200 296.277,215.200 295.213 C 215.200 294.046,215.366 293.600,215.800 293.600 C 216.231 293.600,216.400 293.160,216.400 292.043 C 216.400 291.028,216.609 290.405,217.000 290.255 C 217.396 290.103,217.600 289.477,217.600 288.413 C 217.600 287.526,217.780 286.800,218.000 286.800 C 218.220 286.800,218.400 286.369,218.400 285.843 C 218.400 285.316,218.670 284.782,219.000 284.655 C 219.396 284.503,219.600 283.877,219.600 282.813 C 219.600 281.646,219.766 281.200,220.200 281.200 C 220.566 281.200,220.800 280.827,220.800 280.243 C 220.800 279.716,221.070 279.182,221.400 279.055 C 221.730 278.929,222.000 278.389,222.000 277.855 C 222.000 277.322,222.270 276.782,222.600 276.655 C 222.930 276.529,223.200 276.070,223.200 275.636 C 223.200 275.202,223.380 274.736,223.600 274.600 C 223.820 274.464,224.000 273.913,224.000 273.376 C 224.000 272.775,224.231 272.400,224.600 272.400 C 225.000 272.400,225.200 272.000,225.200 271.200 C 225.200 270.400,225.400 270.000,225.800 270.000 C 226.138 270.000,226.400 269.642,226.400 269.181 C 226.400 268.730,226.838 267.956,227.372 267.461 C 227.907 266.965,228.467 266.074,228.616 265.480 C 228.765 264.886,229.047 264.400,229.243 264.400 C 229.440 264.400,229.600 263.950,229.600 263.400 C 229.600 262.778,229.827 262.400,230.200 262.400 C 230.530 262.400,230.800 262.130,230.800 261.800 C 230.800 261.470,231.070 261.200,231.400 261.200 C 231.730 261.200,232.000 260.949,232.000 260.643 C 232.000 260.336,232.270 259.982,232.600 259.855 C 232.930 259.729,233.200 259.169,233.200 258.613 C 233.200 258.056,233.393 257.600,233.629 257.600 C 234.162 257.600,235.200 256.590,235.200 256.071 C 235.200 255.859,235.470 255.582,235.800 255.455 C 236.130 255.329,236.400 254.769,236.400 254.213 C 236.400 253.579,236.625 253.200,237.000 253.200 C 237.330 253.200,237.600 252.930,237.600 252.600 C 237.600 252.270,237.794 252.000,238.032 252.000 C 238.594 252.000,242.000 248.594,242.000 248.032 C 242.000 247.794,242.270 247.600,242.600 247.600 C 242.930 247.600,243.200 247.330,243.200 247.000 C 243.200 246.670,243.394 246.400,243.632 246.400 C 244.194 246.400,247.600 242.994,247.600 242.432 C 247.600 242.194,247.870 242.000,248.200 242.000 C 248.530 242.000,248.800 241.730,248.800 241.400 C 248.800 241.025,249.179 240.800,249.813 240.800 C 250.369 240.800,250.929 240.530,251.055 240.200 C 251.182 239.870,251.459 239.600,251.671 239.600 C 252.190 239.600,253.200 238.562,253.200 238.029 C 253.200 237.793,253.470 237.600,253.800 237.600 C 254.130 237.600,254.400 237.330,254.400 237.000 C 254.400 236.600,254.800 236.400,255.600 236.400 C 256.400 236.400,256.800 236.200,256.800 235.800 C 256.800 235.470,257.070 235.200,257.400 235.200 C 257.730 235.200,258.000 234.930,258.000 234.600 C 258.000 234.227,258.378 234.000,259.000 234.000 C 259.550 234.000,260.000 233.820,260.000 233.600 C 260.000 233.380,260.270 233.200,260.600 233.200 C 260.930 233.200,261.200 232.930,261.200 232.600 C 261.200 232.200,261.600 232.000,262.400 232.000 C 263.200 232.000,263.600 231.800,263.600 231.400 C 263.600 231.064,263.957 230.800,264.413 230.800 C 264.859 230.800,265.329 230.530,265.455 230.200 C 265.582 229.870,266.122 229.600,266.655 229.600 C 267.189 229.600,267.729 229.330,267.855 229.000 C 267.982 228.670,268.336 228.400,268.643 228.400 C 268.949 228.400,269.200 228.220,269.200 228.000 C 269.200 227.780,269.650 227.600,270.200 227.600 C 270.822 227.600,271.200 227.373,271.200 227.000 C 271.200 226.600,271.600 226.400,272.400 226.400 C 273.200 226.400,273.600 226.200,273.600 225.800 C 273.600 225.367,274.044 225.200,275.200 225.200 C 276.356 225.200,276.800 225.033,276.800 224.600 C 276.800 224.200,277.200 224.000,278.000 224.000 C 278.800 224.000,279.200 223.800,279.200 223.400 C 279.200 223.000,279.600 222.800,280.400 222.800 C 281.060 222.800,281.600 222.620,281.600 222.400 C 281.600 222.180,282.236 222.000,283.013 222.000 C 283.899 222.000,284.511 221.777,284.655 221.400 C 284.806 221.008,285.429 220.800,286.455 220.800 C 287.482 220.800,288.105 220.592,288.255 220.200 C 288.405 219.809,289.028 219.600,290.043 219.600 C 291.160 219.600,291.600 219.431,291.600 219.000 C 291.600 218.567,292.044 218.400,293.200 218.400 C 294.356 218.400,294.800 218.233,294.800 217.800 C 294.800 217.339,295.311 217.200,297.000 217.200 C 298.210 217.200,299.200 217.020,299.200 216.800 C 299.200 216.580,299.926 216.400,300.813 216.400 C 301.877 216.400,302.503 216.196,302.655 215.800 C 302.829 215.347,303.561 215.200,305.643 215.200 C 307.827 215.200,308.400 215.075,308.400 214.600 C 308.400 214.128,308.957 214.000,311.013 214.000 C 312.966 214.000,313.683 213.849,313.855 213.400 C 314.029 212.947,314.761 212.800,316.843 212.800 C 319.027 212.800,319.600 212.675,319.600 212.200 C 319.600 211.709,320.290 211.600,323.413 211.600 C 326.432 211.600,327.273 211.475,327.455 211.000 C 327.637 210.526,328.472 210.400,331.443 210.400 C 333.681 210.400,335.200 210.238,335.200 210.000 C 335.200 209.755,337.138 209.600,340.213 209.600 C 344.299 209.600,345.268 209.489,345.455 209.000 C 345.645 208.507,346.672 208.400,351.243 208.400 C 355.916 208.400,356.800 208.305,356.800 207.800 C 356.800 207.291,357.800 207.200,363.400 207.200 C 369.000 207.200,370.000 207.109,370.000 206.600 C 370.000 206.090,371.022 206.000,376.800 206.000 C 382.578 206.000,383.600 205.910,383.600 205.400 C 383.600 204.892,384.556 204.800,389.800 204.800 C 393.667 204.800,396.000 204.649,396.000 204.400 C 396.000 204.180,396.900 204.000,398.000 204.000 C 399.956 204.000,400.000 203.973,400.000 202.800 L 400.000 201.600 395.233 201.600 C 391.775 201.600,390.421 201.463,390.301 201.100 C 390.177 200.729,388.155 200.568,382.467 200.476 C 378.040 200.404,374.800 200.193,374.800 199.976 C 374.800 199.755,371.748 199.600,367.400 199.600 C 361.089 199.600,360.000 199.512,360.000 199.000 C 360.000 198.491,359.005 198.400,353.443 198.400 C 347.983 198.400,346.847 198.300,346.655 197.800 C 346.466 197.306,345.432 197.200,340.813 197.200 C 336.090 197.200,335.200 197.105,335.200 196.600 C 335.200 196.103,334.449 196.000,330.843 196.000 C 327.339 196.000,326.441 195.883,326.255 195.400 C 326.073 194.925,325.232 194.800,322.213 194.800 C 319.938 194.800,318.400 194.639,318.400 194.400 C 318.400 194.171,317.200 194.000,315.600 194.000 C 313.378 194.000,312.800 193.876,312.800 193.400 C 312.800 192.924,312.222 192.800,310.000 192.800 C 307.778 192.800,307.200 192.676,307.200 192.200 C 307.200 191.739,306.689 191.600,305.000 191.600 C 303.311 191.600,302.800 191.461,302.800 191.000 C 302.800 190.539,302.289 190.400,300.600 190.400 C 298.911 190.400,298.400 190.261,298.400 189.800 C 298.400 189.358,297.938 189.200,296.643 189.200 C 295.450 189.200,294.812 189.007,294.655 188.600 C 294.512 188.226,293.902 188.000,293.036 188.000 C 292.272 188.000,291.536 187.820,291.400 187.600 C 291.264 187.380,290.528 187.200,289.764 187.200 C 288.898 187.200,288.288 186.974,288.145 186.600 C 287.995 186.209,287.372 186.000,286.357 186.000 C 285.240 186.000,284.800 185.831,284.800 185.400 C 284.800 184.969,284.360 184.800,283.243 184.800 C 282.228 184.800,281.605 184.591,281.455 184.200 C 281.329 183.870,280.789 183.600,280.255 183.600 C 279.722 183.600,279.182 183.330,279.055 183.000 C 278.929 182.670,278.369 182.400,277.813 182.400 C 277.256 182.400,276.800 182.220,276.800 182.000 C 276.800 181.780,276.080 181.600,275.200 181.600 C 274.044 181.600,273.600 181.433,273.600 181.000 C 273.600 180.600,273.200 180.400,272.400 180.400 C 271.600 180.400,271.200 180.200,271.200 179.800 C 271.200 179.427,270.822 179.200,270.200 179.200 C 269.578 179.200,269.200 178.973,269.200 178.600 C 269.200 178.270,268.930 178.000,268.600 178.000 C 268.270 178.000,268.000 177.834,268.000 177.632 C 268.000 177.429,267.460 177.145,266.800 177.000 C 266.140 176.855,265.600 176.571,265.600 176.368 C 265.600 176.166,265.150 176.000,264.600 176.000 C 263.978 176.000,263.600 175.773,263.600 175.400 C 263.600 175.070,263.349 174.800,263.043 174.800 C 262.736 174.800,262.382 174.530,262.255 174.200 C 262.129 173.870,261.569 173.600,261.013 173.600 C 260.379 173.600,260.000 173.375,260.000 173.000 C 260.000 172.670,259.730 172.400,259.400 172.400 C 259.070 172.400,258.800 172.223,258.800 172.008 C 258.800 171.792,258.350 171.502,257.800 171.364 C 257.250 171.226,256.800 170.953,256.800 170.757 C 256.800 170.560,256.530 170.400,256.200 170.400 C 255.870 170.400,255.600 170.130,255.600 169.800 C 255.600 169.400,255.200 169.200,254.400 169.200 C 253.600 169.200,253.200 169.000,253.200 168.600 C 253.200 168.270,253.020 168.000,252.800 168.000 C 252.580 168.000,252.400 167.730,252.400 167.400 C 252.400 167.070,252.211 166.800,251.981 166.800 C 251.750 166.800,251.145 166.350,250.635 165.800 C 250.125 165.250,249.504 164.800,249.254 164.800 C 249.004 164.800,248.800 164.530,248.800 164.200 C 248.800 163.870,248.530 163.600,248.200 163.600 C 247.870 163.600,247.600 163.330,247.600 163.000 C 247.600 162.627,247.222 162.400,246.600 162.400 C 245.978 162.400,245.600 162.173,245.600 161.800 C 245.600 161.470,245.330 161.200,245.000 161.200 C 244.670 161.200,244.400 160.930,244.400 160.600 C 244.400 160.270,244.130 160.000,243.800 160.000 C 243.470 160.000,243.200 159.730,243.200 159.400 C 243.200 159.070,242.930 158.800,242.600 158.800 C 242.227 158.800,242.000 158.422,242.000 157.800 C 242.000 157.178,241.773 156.800,241.400 156.800 C 241.070 156.800,240.800 156.621,240.800 156.402 C 240.800 155.866,237.356 152.400,236.823 152.400 C 236.590 152.400,236.400 152.130,236.400 151.800 C 236.400 151.470,236.130 151.200,235.800 151.200 C 235.439 151.200,235.200 150.830,235.200 150.272 C 235.200 149.284,233.242 146.800,232.464 146.800 C 232.209 146.800,232.000 146.260,232.000 145.600 C 232.000 144.800,231.800 144.400,231.400 144.400 C 231.070 144.400,230.800 144.130,230.800 143.800 C 230.800 143.470,230.530 143.200,230.200 143.200 C 229.827 143.200,229.600 142.822,229.600 142.200 C 229.600 141.650,229.434 141.200,229.232 141.200 C 229.029 141.200,228.745 140.660,228.600 140.000 C 228.455 139.340,228.171 138.800,227.968 138.800 C 227.766 138.800,227.600 138.530,227.600 138.200 C 227.600 137.870,227.330 137.600,227.000 137.600 C 226.627 137.600,226.400 137.222,226.400 136.600 C 226.400 135.978,226.173 135.600,225.800 135.600 C 225.400 135.600,225.200 135.200,225.200 134.400 C 225.200 133.600,225.000 133.200,224.600 133.200 C 224.200 133.200,224.000 132.800,224.000 132.000 C 224.000 131.340,223.820 130.800,223.600 130.800 C 223.380 130.800,223.200 130.350,223.200 129.800 C 223.200 129.178,222.973 128.800,222.600 128.800 C 222.200 128.800,222.000 128.400,222.000 127.600 C 222.000 126.800,221.800 126.400,221.400 126.400 C 220.967 126.400,220.800 125.956,220.800 124.800 C 220.800 123.644,220.633 123.200,220.200 123.200 C 219.800 123.200,219.600 122.800,219.600 122.000 C 219.600 121.200,219.400 120.800,219.000 120.800 C 218.567 120.800,218.400 120.356,218.400 119.200 C 218.400 118.320,218.220 117.600,218.000 117.600 C 217.780 117.600,217.600 117.094,217.600 116.476 C 217.600 115.859,217.336 115.004,217.013 114.576 C 216.690 114.149,216.420 113.209,216.413 112.487 C 216.405 111.699,216.160 111.083,215.800 110.945 C 215.408 110.794,215.200 110.171,215.200 109.145 C 215.200 108.118,214.992 107.495,214.600 107.345 C 214.209 107.195,214.000 106.572,214.000 105.557 C 214.000 104.440,213.831 104.000,213.400 104.000 C 212.939 104.000,212.800 103.489,212.800 101.800 C 212.800 100.111,212.661 99.600,212.200 99.600 C 211.733 99.600,211.600 99.067,211.600 97.200 C 211.600 95.867,211.422 94.800,211.200 94.800 C 210.975 94.800,210.800 93.681,210.800 92.243 C 210.800 90.339,210.647 89.627,210.200 89.455 C 209.751 89.283,209.600 88.564,209.600 86.600 C 209.600 84.636,209.449 83.917,209.000 83.745 C 208.537 83.567,208.400 82.795,208.400 80.357 C 208.400 77.817,208.283 77.200,207.800 77.200 C 207.307 77.200,207.200 76.489,207.200 73.200 C 207.200 69.911,207.093 69.200,206.600 69.200 C 206.099 69.200,206.000 68.378,206.000 64.200 C 206.000 61.133,205.845 59.200,205.600 59.200 C 205.353 59.200,205.200 57.129,205.200 53.787 C 205.200 49.345,205.092 48.334,204.600 48.145 C 204.098 47.952,204.000 46.749,204.000 40.745 C 204.000 34.741,203.902 33.537,203.400 33.345 C 202.893 33.150,202.800 31.817,202.800 24.757 C 202.800 17.595,202.714 16.400,202.200 16.400 C 201.686 16.400,201.600 15.222,201.600 8.200 L 201.600 0.000 200.000 0.000 L 198.400 0.000 198.400 6.357 " stroke="none" fill="#04d404" fill-rule="evenodd"></path><path id="path1" d="" stroke="none" fill="#08d404" fill-rule="evenodd"></path><path id="path2" d="" stroke="none" fill="#08d404" fill-rule="evenodd"></path><path id="path3" d="" stroke="none" fill="#08d404" fill-rule="evenodd"></path><path id="path4" d="" stroke="none" fill="#08d404" fill-rule="evenodd"></path></g></svg>