<svg id="Layer_1" data-name="Layer 1" xmlns="http://www.w3.org/2000/svg" viewBox="0 0 85.17 86.02"><defs><style>.cls-1{fill:#fff;}</style></defs><path class="cls-1" d="M2.2,45.28c4.52-.36,8.83-.61,13.11-1.06a55.58,55.58,0,0,0,7.59-1.35C35.48,39.67,41.77,32,43.52,17.51,44.21,11.79,44.53,6,44.87,2c.35,4.3.52,10.33,1.4,16.26C48.76,35,56.71,42.36,73.69,44.17c4.44.48,8.9.73,13.68,1.11-5.74.56-11.16.82-16.49,1.65-15,2.34-22.38,9.73-24.52,24.73C45.49,77.81,45.24,84,44.9,88c-.45-4.33-.78-11-1.87-17.46C40.63,56.2,33.43,49.22,19,47,13.53,46.12,8,45.84,2.2,45.28Z" transform="translate(-2.2 -1.98)"/></svg>