<svg id="svg" version="1.1" xmlns="http://www.w3.org/2000/svg" xmlns:xlink="http://www.w3.org/1999/xlink" width="400" height="404.61285008237235" viewBox="0, 0, 400,404.61285008237235"><g id="svgg"><path id="path0" d="M199.384 2.027 C 199.239 2.261,199.228 2.561,199.360 2.693 C 199.492 2.825,199.603 2.678,199.606 2.367 C 199.611 1.893,199.673 1.897,199.984 2.388 C 200.189 2.712,200.474 2.859,200.618 2.715 C 200.935 2.398,200.492 1.600,200.000 1.600 C 199.806 1.600,199.529 1.792,199.384 2.027 M199.399 4.531 C 198.961 5.883,199.028 8.800,199.497 8.800 C 199.774 8.800,200.000 8.350,200.000 7.800 C 200.000 6.434,200.786 6.526,200.854 7.900 C 200.903 8.876,200.929 8.896,201.085 8.078 C 201.275 7.083,200.534 5.870,199.955 6.228 C 199.760 6.349,199.600 6.257,199.600 6.024 C 199.600 5.791,199.930 5.600,200.333 5.600 C 200.737 5.600,201.067 5.343,201.067 5.029 C 201.067 4.322,199.608 3.886,199.399 4.531 M200.850 12.900 C 200.820 15.267,200.957 16.800,201.200 16.800 C 201.668 16.800,201.680 13.383,201.220 10.800 C 200.951 9.285,200.892 9.618,200.850 12.900 M199.342 11.100 C 199.326 11.485,199.200 12.340,199.063 13.000 C 198.787 14.325,199.081 15.721,199.572 15.417 C 199.960 15.178,200.033 10.400,199.649 10.400 C 199.496 10.400,199.358 10.715,199.342 11.100 M198.267 17.067 C 197.845 17.488,197.956 19.140,198.460 19.947 C 198.785 20.467,198.801 21.022,198.514 21.843 C 198.292 22.482,198.198 23.608,198.307 24.346 C 198.437 25.231,198.316 25.808,197.952 26.038 C 197.519 26.312,197.513 26.389,197.924 26.394 C 198.226 26.397,198.328 26.611,198.165 26.900 C 197.969 27.248,198.017 27.277,198.325 26.996 C 198.570 26.773,198.856 24.635,198.967 22.196 C 199.089 19.502,199.034 18.187,198.823 18.800 C 198.496 19.752,198.478 19.737,198.440 18.476 C 198.416 17.687,198.562 17.253,198.800 17.400 C 199.020 17.536,199.200 17.457,199.200 17.224 C 199.200 16.749,198.673 16.660,198.267 17.067 M201.200 18.600 C 201.200 19.150,201.380 19.600,201.600 19.600 C 201.820 19.600,202.000 19.150,202.000 18.600 C 202.000 18.050,201.820 17.600,201.600 17.600 C 201.380 17.600,201.200 18.050,201.200 18.600 M201.734 26.274 C 202.040 30.936,202.551 31.812,202.728 27.979 C 202.811 26.191,202.704 25.200,202.428 25.200 C 201.827 25.200,201.891 22.910,202.500 22.665 C 202.778 22.553,202.662 22.449,202.240 22.432 C 201.526 22.402,201.495 22.638,201.734 26.274 M197.912 29.346 C 197.813 29.867,197.689 31.614,197.636 33.228 C 197.584 34.842,197.376 36.472,197.174 36.849 C 196.923 37.317,196.964 37.589,197.303 37.703 C 197.664 37.824,197.683 38.025,197.373 38.435 C 196.804 39.187,196.698 41.200,197.228 41.200 C 197.459 41.200,197.531 41.012,197.389 40.782 C 197.247 40.553,197.308 40.148,197.524 39.882 C 197.741 39.617,197.998 37.463,198.096 35.097 C 198.193 32.730,198.392 30.675,198.537 30.530 C 198.929 30.138,198.855 28.400,198.447 28.400 C 198.252 28.400,198.012 28.826,197.912 29.346 M202.000 34.376 C 202.000 36.581,202.477 37.686,203.127 36.985 C 203.277 36.823,203.175 36.610,202.900 36.512 C 202.323 36.306,202.215 35.200,202.772 35.200 C 202.987 35.200,203.013 34.734,202.834 34.100 C 202.663 33.495,202.600 32.775,202.695 32.500 C 202.789 32.225,202.672 32.000,202.433 32.000 C 202.171 32.000,202.000 32.937,202.000 34.376 M203.006 43.400 C 203.097 45.820,203.178 47.856,203.186 47.924 C 203.194 47.992,203.373 47.940,203.585 47.809 C 203.820 47.664,203.831 47.209,203.614 46.637 C 203.397 46.067,203.409 45.551,203.644 45.316 C 203.892 45.068,203.891 44.566,203.643 43.914 C 203.243 42.862,203.270 42.280,203.773 41.123 C 203.935 40.751,203.983 40.121,203.880 39.723 C 203.760 39.258,203.659 39.428,203.599 40.200 L 203.505 41.400 203.173 40.200 C 202.965 39.452,202.902 40.657,203.006 43.400 M196.726 44.100 C 196.686 45.035,196.613 46.160,196.566 46.600 C 196.518 47.040,196.461 48.176,196.439 49.124 C 196.416 50.149,196.240 50.748,196.005 50.603 C 195.772 50.459,195.714 50.633,195.864 51.023 C 196.100 51.637,196.147 51.638,196.486 51.032 C 196.913 50.268,197.431 42.400,197.054 42.400 C 196.914 42.400,196.767 43.165,196.726 44.100 M203.370 50.800 C 203.535 51.790,203.731 52.870,203.805 53.200 C 203.879 53.530,203.953 54.220,203.969 54.733 C 204.001 55.704,204.812 55.764,205.127 54.819 C 205.224 54.527,205.142 54.389,204.945 54.511 C 204.746 54.633,204.654 54.011,204.739 53.119 C 204.840 52.060,204.705 51.373,204.347 51.122 C 203.923 50.825,203.912 50.694,204.300 50.536 C 204.575 50.425,204.786 50.033,204.768 49.667 C 204.748 49.225,204.667 49.175,204.530 49.517 C 204.360 49.939,204.208 49.939,203.696 49.517 C 203.137 49.056,203.102 49.194,203.370 50.800 M195.970 52.100 C 195.652 53.145,195.733 57.192,196.056 56.400 C 196.594 55.080,196.803 52.000,196.354 52.000 C 196.159 52.000,195.986 52.045,195.970 52.100 M204.183 58.100 C 204.349 60.278,204.354 60.292,204.726 59.705 C 205.115 59.094,204.835 56.400,204.383 56.400 C 204.202 56.400,204.112 57.165,204.183 58.100 M195.420 58.500 C 194.928 60.122,194.781 62.800,195.184 62.800 C 195.399 62.800,195.471 62.530,195.345 62.200 C 195.218 61.870,195.281 61.600,195.486 61.600 C 195.690 61.600,195.898 60.700,195.948 59.600 C 196.046 57.450,195.858 57.058,195.420 58.500 M204.969 63.800 C 205.122 65.560,205.308 67.842,205.383 68.872 C 205.457 69.901,205.610 70.893,205.723 71.075 C 205.835 71.257,205.974 72.305,206.031 73.403 C 206.088 74.501,206.262 75.580,206.419 75.800 C 206.575 76.020,206.799 77.249,206.916 78.531 C 207.101 80.550,207.600 82.239,207.600 80.843 C 207.600 80.557,207.809 80.478,208.100 80.653 C 208.467 80.874,208.460 80.781,208.074 80.305 C 207.552 79.661,207.305 78.484,207.041 75.378 C 206.965 74.485,206.771 73.338,206.609 72.828 C 206.407 72.192,206.454 71.986,206.757 72.174 C 207.373 72.554,207.312 72.055,206.662 71.405 C 206.367 71.109,206.158 70.312,206.198 69.634 C 206.238 68.955,206.114 68.400,205.922 68.400 C 205.729 68.400,205.758 68.052,205.986 67.626 C 206.520 66.629,206.513 66.017,205.977 66.800 C 205.659 67.263,205.589 67.127,205.668 66.200 C 205.724 65.540,205.667 64.820,205.541 64.600 C 205.415 64.380,205.291 63.500,205.266 62.643 C 205.241 61.787,205.101 60.977,204.955 60.843 C 204.810 60.710,204.816 62.040,204.969 63.800 M194.681 66.507 C 194.505 67.336,194.471 68.191,194.604 68.407 C 194.738 68.623,194.646 68.800,194.400 68.800 C 194.154 68.800,194.078 69.003,194.232 69.251 C 194.720 70.041,195.254 68.508,195.123 66.695 L 195.000 65.000 194.681 66.507 M193.960 72.100 C 193.887 72.286,193.641 74.591,193.555 75.900 C 193.509 76.615,193.342 77.200,193.184 77.200 C 193.027 77.200,192.944 77.740,193.000 78.400 C 193.056 79.060,192.975 79.600,192.820 79.600 C 192.665 79.600,192.610 80.185,192.698 80.900 C 192.819 81.890,192.757 82.057,192.440 81.600 C 192.132 81.158,192.086 81.395,192.264 82.500 C 192.444 83.624,192.366 84.002,191.952 84.006 C 191.584 84.010,191.547 84.110,191.840 84.306 C 192.082 84.468,192.384 84.870,192.510 85.200 C 192.652 85.570,192.748 85.417,192.760 84.800 C 192.771 84.250,192.974 82.810,193.212 81.600 C 193.451 80.390,193.793 78.230,193.974 76.800 C 194.155 75.370,194.419 73.705,194.560 73.100 C 194.753 72.269,194.236 71.406,193.960 72.100 M207.342 82.500 C 207.497 83.516,208.136 83.370,208.215 82.300 C 208.243 81.915,208.028 81.600,207.736 81.600 C 207.411 81.600,207.258 81.950,207.342 82.500 M208.000 84.800 C 208.000 85.316,208.203 85.599,208.500 85.500 C 208.775 85.408,209.000 85.093,209.000 84.800 C 209.000 84.507,208.775 84.192,208.500 84.100 C 208.203 84.001,208.000 84.284,208.000 84.800 M191.949 86.100 C 191.921 86.155,191.857 86.560,191.808 87.000 C 191.759 87.440,191.589 88.205,191.432 88.700 C 191.257 89.250,191.312 89.600,191.573 89.600 C 191.808 89.600,192.000 89.161,192.000 88.624 C 192.000 88.087,192.180 87.536,192.400 87.400 C 192.620 87.264,192.800 86.893,192.800 86.576 C 192.800 86.106,192.136 85.734,191.949 86.100 M208.000 86.800 C 208.000 87.240,208.161 87.600,208.357 87.600 C 208.807 87.600,209.226 86.560,208.906 86.239 C 208.424 85.758,208.000 86.020,208.000 86.800 M208.800 89.389 C 208.800 90.139,208.999 90.876,209.243 91.026 C 209.538 91.209,209.599 91.028,209.427 90.484 C 209.284 90.035,209.355 89.552,209.584 89.410 C 210.180 89.042,210.097 88.523,209.400 88.255 C 208.939 88.078,208.800 88.341,208.800 89.389 M191.060 90.587 C 190.936 90.910,191.007 91.281,191.217 91.411 C 191.428 91.541,191.600 91.561,191.600 91.456 C 191.600 91.351,191.709 90.981,191.843 90.633 C 191.976 90.285,191.906 90.000,191.686 90.000 C 191.466 90.000,191.184 90.264,191.060 90.587 M190.500 92.265 C 190.225 92.376,190.000 92.642,190.000 92.857 C 190.000 93.072,190.177 93.138,190.394 93.004 C 190.983 92.640,190.396 95.168,189.533 96.712 C 188.776 98.068,188.504 99.151,189.237 97.892 C 189.464 97.502,189.818 97.288,190.025 97.415 C 190.231 97.543,190.414 97.502,190.431 97.324 C 190.447 97.146,190.517 96.730,190.586 96.400 C 190.914 94.819,191.275 92.003,191.145 92.032 C 191.065 92.049,190.775 92.154,190.500 92.265 M209.200 93.213 C 209.200 93.439,209.457 93.724,209.771 93.844 C 210.108 93.974,210.271 94.419,210.170 94.932 C 209.961 95.985,210.753 98.076,211.246 97.771 C 211.722 97.478,211.698 98.142,211.217 98.623 C 211.005 98.835,210.981 99.246,211.164 99.541 C 211.404 99.931,211.565 99.793,211.755 99.036 C 211.923 98.367,211.784 97.642,211.364 97.001 C 211.005 96.454,210.820 95.725,210.952 95.382 C 211.083 95.039,210.902 94.318,210.549 93.779 C 209.890 92.772,209.200 92.483,209.200 93.213 M189.436 99.000 C 189.298 99.550,188.998 100.000,188.769 100.000 C 188.540 100.000,188.476 100.200,188.628 100.445 C 188.779 100.689,188.654 101.047,188.351 101.239 C 187.952 101.491,187.938 101.589,188.300 101.594 C 188.575 101.597,188.800 101.791,188.800 102.024 C 188.800 102.257,188.665 102.364,188.500 102.263 C 188.335 102.162,188.181 102.603,188.157 103.245 C 188.134 103.886,187.842 104.723,187.509 105.105 C 187.177 105.487,186.988 106.031,187.090 106.313 C 187.192 106.596,187.057 107.091,186.789 107.413 C 186.448 107.825,186.436 108.000,186.751 108.000 C 186.998 108.000,187.200 108.191,187.200 108.424 C 187.200 108.657,186.992 108.719,186.738 108.562 C 186.484 108.405,186.373 108.439,186.491 108.638 C 186.609 108.837,186.520 109.450,186.294 110.000 C 185.672 111.507,185.617 112.061,186.105 111.898 C 186.793 111.669,188.194 106.265,187.616 106.072 C 187.321 105.974,187.434 105.711,187.918 105.372 C 188.356 105.065,188.828 104.084,189.003 103.115 C 189.173 102.172,189.363 101.220,189.426 101.000 C 189.814 99.633,190.069 98.000,189.893 98.000 C 189.780 98.000,189.574 98.450,189.436 99.000 M211.700 100.265 C 211.082 100.514,211.033 102.000,211.643 102.000 C 211.886 102.000,211.990 101.752,211.874 101.449 C 211.758 101.146,211.864 100.696,212.111 100.449 C 212.586 99.974,212.508 99.939,211.700 100.265 M212.000 104.151 C 212.000 104.234,212.270 104.526,212.600 104.800 C 213.091 105.208,213.200 105.180,213.200 104.649 C 213.200 104.292,212.930 104.000,212.600 104.000 C 212.270 104.000,212.000 104.068,212.000 104.151 M213.246 107.167 C 213.419 107.955,213.745 109.458,213.969 110.506 C 214.466 112.823,215.110 114.103,215.620 113.788 C 216.222 113.415,216.061 112.400,215.400 112.400 C 215.070 112.400,214.800 112.055,214.800 111.633 C 214.800 111.211,214.679 110.551,214.532 110.167 C 214.330 109.640,214.403 109.550,214.832 109.799 C 215.144 109.980,214.993 109.681,214.496 109.134 C 213.810 108.380,213.650 107.849,213.833 106.937 C 214.010 106.049,213.924 105.733,213.503 105.733 C 213.056 105.733,213.000 106.045,213.246 107.167 M185.448 113.106 C 185.268 113.639,184.948 113.903,184.671 113.747 C 184.356 113.570,184.366 113.661,184.700 114.021 C 185.342 114.713,186.143 114.001,185.915 112.942 C 185.773 112.287,185.718 112.306,185.448 113.106 M215.200 114.813 C 215.200 115.026,215.380 115.200,215.600 115.200 C 215.820 115.200,216.001 115.695,216.002 116.300 C 216.004 116.905,216.274 117.916,216.602 118.546 C 216.931 119.176,217.200 119.941,217.200 120.246 C 217.200 120.551,217.470 120.800,217.800 120.800 C 218.130 120.800,218.400 120.609,218.400 120.376 C 218.400 120.143,218.175 120.088,217.900 120.253 C 217.581 120.445,217.605 120.301,217.968 119.854 C 218.458 119.250,218.458 119.172,217.968 119.277 C 217.584 119.360,217.407 119.051,217.421 118.325 C 217.433 117.734,217.307 117.334,217.141 117.436 C 216.976 117.539,216.724 117.000,216.581 116.239 C 216.351 115.012,215.200 113.823,215.200 114.813 M183.817 115.972 C 183.691 116.177,183.797 116.475,184.054 116.633 C 184.383 116.836,184.302 117.082,183.784 117.461 C 183.379 117.757,183.239 118.000,183.475 118.000 C 184.293 118.000,185.015 116.780,184.416 116.410 C 184.008 116.158,184.060 116.036,184.642 115.887 C 185.261 115.728,185.276 115.684,184.724 115.646 C 184.352 115.621,183.944 115.768,183.817 115.972 M183.467 118.667 C 183.320 118.813,183.200 119.269,183.200 119.679 C 183.200 120.089,182.941 120.524,182.625 120.646 C 182.309 120.767,182.148 121.121,182.268 121.433 C 182.388 121.745,182.276 122.000,182.019 122.000 C 181.763 122.000,181.664 122.180,181.800 122.400 C 182.218 123.076,182.800 122.844,182.800 122.000 C 182.800 121.560,182.960 121.200,183.156 121.200 C 183.352 121.200,183.586 120.570,183.676 119.800 C 183.854 118.274,183.855 118.279,183.467 118.667 M218.138 122.461 C 218.276 122.978,218.392 123.535,218.395 123.700 C 218.398 123.865,218.591 124.000,218.824 124.000 C 219.057 124.000,219.124 123.800,218.972 123.555 C 218.821 123.311,218.893 122.989,219.133 122.842 C 219.407 122.672,219.257 122.378,218.727 122.047 C 217.948 121.561,217.905 121.591,218.138 122.461 M181.153 123.300 C 181.127 123.575,181.139 124.043,181.179 124.340 C 181.226 124.682,181.060 124.768,180.727 124.576 C 180.437 124.409,180.335 124.421,180.501 124.603 C 180.666 124.786,180.491 125.310,180.111 125.768 C 179.732 126.225,179.663 126.389,179.959 126.131 C 180.255 125.873,180.746 125.758,181.049 125.874 C 181.428 126.020,181.600 125.768,181.600 125.066 C 181.600 124.506,181.783 123.934,182.007 123.796 C 182.463 123.514,182.155 122.800,181.576 122.800 C 181.369 122.800,181.179 123.025,181.153 123.300 M219.200 125.267 C 219.200 125.670,219.335 126.014,219.500 126.031 C 219.665 126.047,220.116 126.122,220.502 126.195 C 220.888 126.269,221.101 126.163,220.974 125.958 C 220.848 125.754,220.549 125.708,220.309 125.856 C 220.030 126.029,219.949 125.839,220.082 125.329 C 220.215 124.822,220.092 124.533,219.745 124.533 C 219.445 124.533,219.200 124.863,219.200 125.267 M179.631 127.200 C 179.759 128.403,179.586 128.800,178.933 128.800 C 178.567 128.800,178.387 128.920,178.534 129.068 C 178.681 129.215,178.486 129.696,178.101 130.136 C 177.602 130.706,177.573 130.838,178.000 130.592 C 178.505 130.301,178.518 130.347,178.086 130.881 C 177.803 131.230,177.600 131.670,177.633 131.858 C 177.773 132.636,177.565 132.965,177.250 132.466 C 176.970 132.025,176.875 132.028,176.700 132.485 C 176.570 132.822,176.775 133.058,177.227 133.092 C 177.731 133.130,178.126 132.709,178.464 131.774 C 178.737 131.018,179.115 130.400,179.304 130.400 C 179.493 130.400,179.539 130.225,179.407 130.011 C 179.275 129.798,179.437 129.211,179.766 128.707 C 180.188 128.065,180.247 127.615,179.966 127.196 C 179.613 126.669,179.574 126.669,179.631 127.200 M221.566 130.473 C 222.155 131.613,222.899 132.617,223.219 132.703 C 223.600 132.807,223.647 132.747,223.357 132.530 C 223.113 132.349,222.966 131.856,223.031 131.436 C 223.136 130.748,221.372 128.400,220.749 128.400 C 220.609 128.400,220.977 129.333,221.566 130.473 M223.200 133.505 C 223.200 133.726,223.560 134.001,224.000 134.116 C 224.440 134.231,224.800 134.533,224.800 134.786 C 224.800 135.040,224.620 135.136,224.400 135.000 C 223.697 134.566,223.971 135.856,224.808 136.920 C 225.253 137.485,225.876 138.544,226.192 139.273 C 226.509 140.003,226.776 140.368,226.784 140.084 C 226.793 139.800,226.395 138.810,225.900 137.884 C 225.405 136.958,225.000 135.773,225.000 135.251 C 225.000 134.711,224.612 134.043,224.100 133.702 C 223.605 133.372,223.200 133.283,223.200 133.505 M176.321 134.036 C 175.951 134.243,175.714 134.751,175.793 135.164 C 175.873 135.578,175.603 136.276,175.193 136.715 C 174.783 137.155,174.557 137.624,174.691 137.757 C 175.175 138.242,175.600 137.982,175.600 137.200 C 175.600 136.760,175.762 136.400,175.961 136.400 C 176.296 136.400,177.332 133.999,177.098 133.765 C 177.041 133.707,176.691 133.829,176.321 134.036 M173.200 140.200 C 173.200 140.530,172.941 140.800,172.624 140.800 C 172.307 140.800,171.946 140.964,171.822 141.165 C 171.698 141.366,171.912 141.469,172.298 141.395 C 172.684 141.322,173.135 141.247,173.300 141.231 C 173.465 141.214,173.600 140.945,173.600 140.633 C 173.600 140.322,173.825 139.976,174.100 139.865 C 174.399 139.744,174.318 139.650,173.900 139.632 C 173.515 139.614,173.200 139.870,173.200 140.200 M227.200 141.151 C 227.200 141.398,227.338 141.600,227.506 141.600 C 227.674 141.600,228.221 142.462,228.721 143.516 C 229.773 145.732,231.271 147.600,231.996 147.600 C 232.397 147.600,232.398 147.479,232.000 147.000 C 231.726 146.670,231.636 146.400,231.800 146.400 C 231.964 146.400,231.876 146.132,231.604 145.804 C 231.332 145.477,230.938 145.315,230.728 145.445 C 230.518 145.574,230.247 145.302,230.126 144.840 C 230.006 144.378,229.758 144.000,229.576 144.000 C 229.395 144.000,229.308 143.680,229.383 143.289 C 229.458 142.898,229.268 142.234,228.960 141.813 C 228.652 141.392,228.400 141.194,228.400 141.373 C 228.400 141.552,228.130 141.474,227.800 141.200 C 227.385 140.856,227.200 140.841,227.200 141.151 M171.307 142.383 C 171.432 142.911,170.711 144.392,170.417 144.210 C 170.237 144.099,169.868 144.277,169.596 144.604 C 169.324 144.932,169.220 145.200,169.365 145.200 C 169.510 145.200,169.421 145.587,169.168 146.061 C 168.770 146.804,168.800 146.886,169.386 146.661 C 169.760 146.517,170.141 146.400,170.233 146.400 C 170.325 146.400,170.400 146.158,170.400 145.862 C 170.400 145.566,170.840 144.813,171.377 144.187 C 171.915 143.562,172.274 142.919,172.175 142.759 C 172.076 142.599,172.221 142.381,172.498 142.275 C 172.774 142.169,172.607 142.101,172.128 142.124 C 171.648 142.147,171.279 142.264,171.307 142.383 M167.766 147.255 C 167.585 147.548,167.650 147.616,167.938 147.438 C 168.215 147.267,168.400 147.413,168.400 147.800 C 168.400 148.187,168.215 148.333,167.938 148.162 C 167.652 147.985,167.585 148.052,167.762 148.338 C 168.031 148.774,167.493 148.994,166.600 148.814 C 166.380 148.770,166.332 148.866,166.494 149.027 C 166.655 149.189,166.490 149.539,166.125 149.805 C 165.308 150.402,165.084 151.600,165.789 151.600 C 166.075 151.600,166.632 151.105,167.027 150.500 C 167.423 149.895,167.984 149.162,168.273 148.871 C 168.563 148.581,168.800 148.096,168.800 147.795 C 168.800 147.040,168.119 146.685,167.766 147.255 M232.800 149.044 C 232.800 149.728,235.616 153.600,236.114 153.600 C 236.177 153.600,236.229 153.253,236.229 152.829 C 236.229 152.406,236.094 152.142,235.929 152.244 C 235.560 152.472,234.000 150.961,234.000 150.376 C 234.000 150.143,234.180 150.064,234.400 150.200 C 235.280 150.744,234.733 150.048,233.800 149.437 C 233.250 149.076,232.800 148.899,232.800 149.044 M163.985 152.147 C 163.684 152.616,163.482 153.296,163.536 153.659 C 163.599 154.074,163.377 154.296,162.933 154.259 C 162.531 154.225,162.163 154.530,162.072 154.972 C 161.912 155.751,161.070 156.800,160.605 156.800 C 160.466 156.800,160.481 156.592,160.638 156.338 C 160.811 156.059,160.748 155.985,160.479 156.151 C 160.235 156.302,160.139 156.697,160.267 157.029 C 160.394 157.361,160.341 157.583,160.149 157.522 C 159.641 157.362,157.589 159.259,157.837 159.660 C 157.953 159.847,157.798 160.000,157.493 160.000 C 157.189 160.000,156.503 160.494,155.970 161.097 C 155.192 161.977,155.170 162.051,155.860 161.471 C 156.348 161.061,156.823 160.914,156.957 161.130 C 157.151 161.445,160.400 158.640,160.400 158.158 C 160.400 158.077,161.299 157.107,162.397 156.003 C 163.496 154.898,164.394 153.861,164.394 153.697 C 164.394 153.534,164.633 153.120,164.926 152.778 C 165.327 152.310,165.344 152.050,164.996 151.725 C 164.660 151.411,164.385 151.526,163.985 152.147 M236.688 153.733 C 236.302 154.715,236.325 154.894,236.800 154.600 C 237.020 154.464,237.201 154.588,237.202 154.876 C 237.204 155.164,238.104 156.376,239.202 157.568 C 240.301 158.760,241.200 159.517,241.200 159.249 C 241.200 158.981,240.705 158.326,240.100 157.793 C 239.495 157.261,239.236 156.820,239.524 156.813 C 239.812 156.806,239.941 156.628,239.811 156.417 C 239.681 156.207,239.310 156.136,238.987 156.260 C 238.621 156.401,238.400 156.244,238.400 155.843 C 238.400 155.489,238.201 155.200,237.957 155.200 C 237.714 155.200,237.622 154.921,237.753 154.579 C 237.884 154.238,237.827 154.060,237.626 154.184 C 237.425 154.308,237.197 154.093,237.118 153.705 C 236.985 153.045,236.958 153.047,236.688 153.733 M241.699 160.097 C 241.765 160.297,241.991 160.460,242.200 160.460 C 242.409 160.460,242.635 160.297,242.701 160.097 C 242.768 159.897,242.542 159.733,242.200 159.733 C 241.858 159.733,241.632 159.897,241.699 160.097 M242.800 161.060 C 242.800 161.522,247.202 165.600,247.701 165.600 C 247.966 165.600,247.794 165.195,247.317 164.700 C 246.841 164.205,245.816 163.125,245.039 162.300 C 243.748 160.929,242.800 160.404,242.800 161.060 M155.100 162.703 C 154.495 163.078,154.000 163.524,154.000 163.693 C 154.000 163.862,153.809 164.000,153.576 164.000 C 153.343 164.000,153.282 163.775,153.441 163.500 C 153.608 163.210,153.576 163.140,153.364 163.333 C 153.164 163.517,152.992 163.877,152.982 164.133 C 152.972 164.390,152.733 164.551,152.452 164.490 C 152.171 164.430,152.046 164.551,152.175 164.760 C 152.304 164.969,152.093 165.222,151.705 165.323 C 151.091 165.483,151.086 165.513,151.666 165.554 C 152.032 165.579,152.752 165.248,153.266 164.818 C 153.780 164.388,154.740 163.584,155.400 163.031 C 156.793 161.864,156.670 161.730,155.100 162.703 M248.565 165.500 C 248.744 165.817,248.590 166.000,248.144 166.000 C 247.596 166.000,247.547 166.107,247.920 166.480 C 248.293 166.853,248.507 166.853,248.880 166.480 C 249.253 166.107,249.240 165.889,248.821 165.500 C 248.390 165.100,248.339 165.100,248.565 165.500 M150.734 166.350 C 151.163 166.623,151.144 166.736,150.634 166.932 C 150.285 167.065,150.000 166.973,150.000 166.725 C 150.000 166.478,149.550 166.799,149.000 167.438 C 148.451 168.077,147.998 168.780,147.994 169.000 C 147.991 169.220,147.830 169.151,147.638 168.847 C 147.363 168.413,147.229 168.477,147.017 169.147 C 146.768 169.931,146.325 170.186,145.470 170.037 C 145.289 170.006,145.273 170.195,145.436 170.458 C 145.644 170.795,145.509 170.851,144.978 170.647 C 144.563 170.488,144.351 170.484,144.505 170.638 C 144.805 170.938,143.320 172.400,142.715 172.400 C 142.516 172.400,142.464 172.580,142.600 172.800 C 142.736 173.020,142.556 173.200,142.200 173.200 C 141.844 173.200,141.663 173.022,141.797 172.805 C 141.940 172.573,141.770 172.514,141.387 172.660 C 140.903 172.846,140.861 172.990,141.225 173.215 C 141.572 173.430,141.494 173.576,140.958 173.713 C 140.316 173.878,140.337 173.914,141.100 173.954 C 141.595 173.979,142.360 173.640,142.800 173.200 C 143.240 172.760,143.605 172.535,143.612 172.700 C 143.619 172.865,143.805 172.691,144.025 172.313 C 144.245 171.935,145.005 171.350,145.713 171.013 C 147.347 170.236,149.200 168.651,149.200 168.030 C 149.200 167.767,149.367 167.656,149.571 167.782 C 149.775 167.908,150.450 167.565,151.071 167.018 L 152.200 166.025 151.200 166.019 C 150.503 166.014,150.361 166.115,150.734 166.350 M248.830 167.100 C 248.871 167.517,253.100 170.800,253.596 170.800 C 253.818 170.800,254.000 170.980,254.000 171.200 C 254.000 171.420,254.202 171.600,254.449 171.600 C 254.759 171.600,254.744 171.415,254.400 171.000 C 254.126 170.670,253.643 170.400,253.327 170.400 C 253.011 170.400,252.864 170.220,253.000 170.000 C 253.136 169.780,253.046 169.600,252.800 169.600 C 252.554 169.600,252.464 169.420,252.600 169.200 C 252.736 168.980,252.556 168.800,252.200 168.800 C 251.844 168.800,251.656 168.632,251.783 168.428 C 251.909 168.223,251.802 167.925,251.545 167.766 C 251.252 167.585,251.184 167.650,251.362 167.938 C 251.856 168.738,251.004 168.439,250.400 167.600 C 249.844 166.828,248.769 166.486,248.830 167.100 M255.385 172.025 C 255.286 172.185,255.459 172.414,255.769 172.533 C 256.080 172.652,256.422 172.521,256.529 172.241 C 256.732 171.711,255.699 171.516,255.385 172.025 M257.740 173.074 C 257.828 174.145,258.774 174.920,261.800 176.400 C 262.680 176.830,263.220 177.189,263.000 177.197 C 262.780 177.206,262.870 177.387,263.200 177.600 C 264.242 178.273,264.463 178.034,263.719 177.041 C 263.323 176.514,262.877 176.157,262.728 176.248 C 262.578 176.339,262.340 176.227,262.200 176.000 C 262.060 175.773,261.789 175.683,261.600 175.800 C 261.410 175.917,261.017 175.695,260.727 175.307 C 260.437 174.918,259.930 174.542,259.600 174.471 C 259.270 174.401,258.820 174.165,258.600 173.948 C 258.336 173.687,258.472 173.650,259.000 173.840 C 259.440 173.998,259.710 174.052,259.600 173.959 C 257.537 172.226,257.676 172.292,257.740 173.074 M139.200 174.846 C 139.200 174.998,138.660 175.310,138.000 175.540 C 136.872 175.933,136.322 176.800,137.200 176.800 C 137.420 176.800,137.600 176.620,137.600 176.400 C 137.600 176.180,137.825 175.999,138.100 175.997 C 138.375 175.996,139.132 175.644,139.781 175.216 C 140.831 174.524,140.865 174.445,140.081 174.504 C 139.597 174.540,139.200 174.694,139.200 174.846 M135.452 177.009 C 135.220 177.613,135.085 177.661,134.822 177.236 C 134.564 176.818,134.427 176.885,134.223 177.527 C 133.933 178.442,132.672 179.015,131.942 178.564 C 131.663 178.392,131.584 178.450,131.745 178.711 C 131.892 178.949,131.830 179.258,131.607 179.396 C 131.383 179.534,131.200 179.444,131.200 179.195 C 131.200 178.933,130.937 179.005,130.574 179.368 C 130.230 179.712,130.073 180.194,130.224 180.440 C 130.376 180.685,130.613 180.731,130.750 180.542 C 130.888 180.354,131.810 179.793,132.800 179.297 C 135.223 178.083,136.117 177.351,135.915 176.746 C 135.808 176.424,135.640 176.519,135.452 177.009 M264.832 178.100 C 264.812 178.529,265.090 178.800,265.551 178.800 C 265.964 178.800,266.526 179.070,266.800 179.400 C 267.074 179.730,267.501 179.994,267.749 179.987 C 268.373 179.968,266.436 178.400,265.789 178.400 C 265.502 178.400,265.176 178.175,265.065 177.900 C 264.944 177.601,264.850 177.682,264.832 178.100 M128.235 180.600 C 127.286 181.625,126.527 181.966,127.038 181.138 C 127.222 180.841,127.147 180.785,126.827 180.983 C 125.570 181.760,127.208 182.144,128.696 181.421 C 129.523 181.020,129.974 180.610,129.698 180.511 C 129.421 180.412,129.297 180.167,129.421 179.966 C 129.875 179.232,129.138 179.626,128.235 180.600 M268.648 179.923 C 268.392 180.337,270.714 182.000,271.547 182.000 C 271.796 182.000,272.000 182.191,272.000 182.424 C 272.000 182.657,272.168 182.744,272.372 182.617 C 272.577 182.491,272.858 182.570,272.996 182.793 C 273.134 183.017,273.517 183.200,273.847 183.200 C 274.177 183.200,274.345 183.035,274.221 182.834 C 274.097 182.633,274.221 182.365,274.498 182.238 C 274.774 182.111,274.572 182.115,274.050 182.247 C 273.457 182.396,273.194 182.333,273.350 182.080 C 273.502 181.835,273.279 181.759,272.784 181.888 C 272.239 182.031,272.005 181.927,272.083 181.576 C 272.154 181.255,271.810 181.040,271.200 181.025 C 270.590 181.010,270.243 180.793,270.310 180.470 C 270.374 180.163,270.229 180.059,269.965 180.222 C 269.715 180.376,269.373 180.280,269.205 180.009 C 269.008 179.690,268.811 179.659,268.648 179.923 M125.438 182.261 C 125.497 182.514,125.197 182.812,124.772 182.923 C 124.348 183.034,124.000 182.962,124.000 182.763 C 124.000 182.563,124.210 182.400,124.467 182.400 C 124.723 182.400,124.815 182.282,124.671 182.137 C 124.526 181.993,123.947 182.372,123.385 182.979 C 122.709 183.708,122.096 184.014,121.581 183.879 C 121.151 183.767,120.800 183.811,120.800 183.977 C 120.800 184.143,120.057 184.613,119.150 185.023 C 118.242 185.432,117.718 185.839,117.984 185.928 C 118.250 186.017,119.038 185.818,119.734 185.487 C 120.430 185.155,121.450 184.699,122.000 184.473 C 125.719 182.945,126.400 182.608,126.400 182.299 C 126.400 182.109,126.235 182.055,126.034 182.179 C 125.833 182.303,125.592 182.269,125.500 182.102 C 125.407 181.936,125.379 182.007,125.438 182.261 M274.800 183.347 C 274.800 183.628,276.635 184.586,277.950 184.992 C 278.602 185.194,278.814 185.147,278.626 184.843 C 278.476 184.599,278.543 184.400,278.776 184.400 C 279.009 184.400,279.200 184.771,279.200 185.224 C 279.200 185.677,279.348 185.956,279.529 185.844 C 279.709 185.732,280.330 185.886,280.908 186.186 C 281.808 186.653,282.029 186.647,282.447 186.143 C 282.716 185.820,282.770 185.586,282.568 185.625 C 281.460 185.836,280.341 185.503,279.646 184.757 C 279.214 184.294,278.667 184.035,278.431 184.181 C 278.194 184.327,277.775 184.307,277.500 184.135 C 277.225 183.963,276.820 183.790,276.600 183.750 C 276.380 183.710,275.885 183.551,275.500 183.396 C 275.115 183.241,274.800 183.219,274.800 183.347 M115.721 185.858 C 115.872 186.110,115.701 186.429,115.340 186.568 C 114.335 186.953,114.971 187.273,116.153 186.976 C 116.729 186.832,117.200 186.523,117.200 186.290 C 117.200 186.057,117.082 185.985,116.937 186.130 C 116.792 186.275,116.397 186.170,116.060 185.897 C 115.669 185.580,115.546 185.566,115.721 185.858 M283.100 186.303 C 282.715 186.389,282.400 186.625,282.400 186.829 C 282.400 187.396,283.596 187.270,283.627 186.700 C 283.642 186.425,283.849 186.605,284.088 187.100 C 284.475 187.903,285.200 188.348,285.200 187.783 C 285.200 187.210,283.719 186.166,283.100 186.303 M111.490 187.653 C 110.739 188.213,110.062 188.402,109.400 188.236 C 108.635 188.044,108.472 188.122,108.653 188.595 C 108.926 189.304,109.321 189.312,111.165 188.646 C 112.128 188.298,113.472 186.654,112.665 186.813 C 112.629 186.820,112.100 187.198,111.490 187.653 M113.600 187.200 C 113.283 187.396,113.156 187.689,113.318 187.852 C 113.481 188.014,113.823 187.937,114.080 187.680 C 114.684 187.076,114.347 186.738,113.600 187.200 M285.770 187.478 C 285.829 187.875,286.009 188.170,286.171 188.133 C 286.779 187.996,286.802 187.700,286.242 187.235 C 285.772 186.845,285.684 186.890,285.770 187.478 M287.285 188.097 C 286.920 188.537,286.925 188.675,287.306 188.704 C 287.578 188.725,288.250 188.847,288.800 188.975 C 289.350 189.104,289.530 189.088,289.200 188.940 C 288.870 188.791,288.411 188.413,288.179 188.099 C 287.815 187.605,287.694 187.605,287.285 188.097 M106.406 189.124 C 106.403 189.412,106.220 189.536,106.000 189.400 C 105.780 189.264,105.600 189.364,105.600 189.623 C 105.600 189.894,105.266 190.006,104.814 189.888 C 104.362 189.769,104.064 189.869,104.114 190.123 C 104.161 190.365,103.990 190.572,103.733 190.582 C 103.025 190.609,102.579 191.200,103.267 191.200 C 103.597 191.200,104.002 191.065,104.167 190.900 C 104.332 190.735,104.587 190.586,104.733 190.569 C 106.385 190.377,107.986 189.812,108.160 189.361 C 108.426 188.667,107.745 188.608,107.464 189.300 C 107.311 189.676,107.156 189.652,106.837 189.200 C 106.525 188.759,106.411 188.739,106.406 189.124 M290.181 189.152 C 289.582 189.751,291.152 190.397,293.300 190.437 C 293.685 190.444,294.000 190.629,294.000 190.848 C 294.000 191.068,294.180 191.136,294.400 191.000 C 294.620 190.864,294.800 190.573,294.800 190.353 C 294.800 190.133,294.640 190.051,294.445 190.172 C 294.250 190.293,293.865 190.119,293.589 189.787 C 293.284 189.419,292.776 189.281,292.293 189.434 C 291.857 189.572,291.599 189.525,291.721 189.329 C 291.941 188.972,290.524 188.810,290.181 189.152 M98.849 191.161 C 98.546 191.353,98.403 191.681,98.531 191.889 C 98.866 192.430,101.261 191.997,101.987 191.264 C 102.539 190.707,102.520 190.678,101.800 190.974 C 100.273 191.602,99.064 191.743,99.364 191.258 C 99.701 190.714,99.589 190.693,98.849 191.161 M296.200 191.335 C 297.246 191.852,298.900 192.388,300.200 192.633 C 300.420 192.674,300.690 192.742,300.800 192.784 C 300.910 192.825,301.450 192.938,302.000 193.034 C 302.550 193.131,303.270 193.322,303.600 193.460 C 304.543 193.855,305.584 193.897,305.358 193.532 C 305.245 193.349,304.793 193.200,304.353 193.200 C 303.913 193.200,303.656 193.032,303.783 192.828 C 303.909 192.623,303.802 192.325,303.545 192.166 C 303.252 191.985,303.184 192.050,303.362 192.338 C 303.783 193.020,302.175 192.918,301.476 192.219 C 301.157 191.900,300.784 191.750,300.648 191.886 C 300.511 192.022,300.397 191.878,300.394 191.567 C 300.389 191.100,300.319 191.106,300.000 191.600 C 299.787 191.930,299.609 191.994,299.606 191.743 C 299.603 191.491,299.321 191.178,298.979 191.047 C 298.574 190.892,298.458 190.970,298.645 191.273 C 298.844 191.594,298.698 191.646,298.166 191.440 C 297.745 191.277,296.860 191.054,296.200 190.943 L 295.000 190.743 296.200 191.335 M88.559 193.700 C 88.401 193.975,88.419 194.067,88.599 193.903 C 88.779 193.740,89.148 193.791,89.418 194.015 C 89.704 194.252,90.616 194.311,91.588 194.156 C 92.619 193.991,93.073 193.769,92.766 193.579 C 92.491 193.409,91.853 193.428,91.348 193.620 C 90.791 193.832,90.334 193.818,90.191 193.585 C 89.854 193.040,88.900 193.107,88.559 193.700 M308.000 193.608 C 308.000 193.837,307.518 193.923,306.900 193.805 L 305.800 193.595 306.896 194.030 C 307.776 194.379,308.118 194.339,308.625 193.832 C 309.198 193.259,309.198 193.200,308.629 193.200 C 308.283 193.200,308.000 193.383,308.000 193.608 M86.000 194.670 C 85.008 195.184,85.011 195.188,86.433 195.194 C 87.364 195.198,87.867 195.013,87.867 194.667 C 87.867 194.001,87.290 194.002,86.000 194.670 M309.200 194.426 C 309.200 194.632,309.560 194.822,310.000 194.850 C 311.849 194.966,312.245 195.053,313.126 195.542 C 313.882 195.962,314.170 195.959,314.702 195.528 C 315.061 195.237,315.232 195.203,315.083 195.451 C 314.790 195.941,316.555 196.430,318.350 196.357 C 319.111 196.326,318.930 196.209,317.692 195.932 C 316.752 195.722,316.069 195.412,316.173 195.244 C 316.277 195.076,315.605 194.957,314.681 194.980 C 313.612 195.006,312.823 194.799,312.513 194.411 C 312.153 193.960,312.022 193.937,312.013 194.324 C 312.006 194.612,311.852 194.756,311.672 194.644 C 310.995 194.226,309.200 194.068,309.200 194.426 M81.833 195.254 C 82.027 195.567,81.732 195.651,80.878 195.526 C 80.198 195.426,79.733 195.492,79.845 195.672 C 79.956 195.853,79.872 196.000,79.657 196.000 C 79.442 196.000,79.176 195.775,79.065 195.500 C 78.904 195.100,78.857 195.100,78.832 195.500 C 78.814 195.775,78.519 196.000,78.176 196.000 C 77.833 196.000,77.666 196.183,77.804 196.407 C 77.942 196.630,78.229 196.706,78.441 196.575 C 78.653 196.443,80.009 196.260,81.453 196.167 C 84.108 195.997,84.800 195.806,84.800 195.243 C 84.800 194.770,83.444 194.862,83.070 195.361 C 82.835 195.673,82.680 195.655,82.536 195.300 C 82.425 195.025,82.158 194.800,81.943 194.800 C 81.728 194.800,81.679 195.004,81.833 195.254 M319.592 195.900 C 320.053 196.852,320.800 197.120,320.800 196.333 C 320.800 196.077,320.683 195.984,320.540 196.127 C 320.396 196.270,320.026 196.075,319.717 195.694 C 319.214 195.071,319.201 195.092,319.592 195.900 M75.400 196.611 L 73.800 197.139 75.500 197.169 C 76.758 197.192,77.200 197.044,77.200 196.600 C 77.200 196.270,77.155 196.019,77.100 196.042 C 77.045 196.065,76.280 196.321,75.400 196.611 M321.206 196.438 C 321.202 196.919,321.601 197.077,322.824 197.077 C 323.717 197.077,324.251 196.955,324.010 196.806 C 323.769 196.657,323.174 196.568,322.686 196.607 C 322.199 196.647,321.668 196.481,321.506 196.239 C 321.320 195.961,321.210 196.034,321.206 196.438 M71.482 197.330 C 71.346 197.684,71.565 197.828,72.139 197.764 C 72.613 197.710,73.180 197.649,73.400 197.627 C 73.915 197.576,72.748 196.814,72.143 196.806 C 71.891 196.803,71.594 197.039,71.482 197.330 M326.933 197.378 C 326.933 197.787,327.322 197.925,328.267 197.851 C 329.000 197.793,329.600 197.863,329.600 198.006 C 329.600 198.149,329.870 198.267,330.200 198.267 C 330.530 198.267,330.800 198.117,330.800 197.933 C 330.800 197.644,330.197 197.520,329.345 197.634 C 329.204 197.653,328.937 197.428,328.751 197.134 C 328.476 196.701,328.411 196.709,328.406 197.180 C 328.401 197.631,328.293 197.653,327.920 197.280 C 327.280 196.640,326.933 196.674,326.933 197.378 M66.102 197.500 C 66.269 197.592,66.303 197.833,66.179 198.034 C 66.055 198.235,66.323 198.400,66.776 198.400 C 67.229 198.400,67.600 198.220,67.600 198.000 C 67.600 197.780,67.435 197.600,67.233 197.600 C 67.031 197.600,66.626 197.540,66.333 197.466 C 66.040 197.392,65.936 197.407,66.102 197.500 M332.400 197.624 C 332.400 197.857,332.232 197.944,332.028 197.817 C 331.823 197.691,331.542 197.770,331.404 197.993 C 331.266 198.217,331.504 198.400,331.934 198.400 C 332.363 198.400,332.818 198.130,332.945 197.800 C 333.071 197.470,333.001 197.200,332.787 197.200 C 332.574 197.200,332.400 197.391,332.400 197.624 M68.000 198.000 C 68.000 198.458,68.570 198.458,70.000 198.000 C 70.892 197.714,70.839 197.675,69.500 197.640 C 68.675 197.618,68.000 197.780,68.000 198.000 M58.400 198.370 C 56.941 199.156,55.282 199.478,54.614 199.104 C 54.152 198.846,53.776 198.864,53.481 199.159 C 53.239 199.401,53.211 199.615,53.420 199.633 C 53.629 199.652,54.250 199.717,54.800 199.779 C 55.350 199.841,56.250 199.715,56.800 199.498 C 57.350 199.282,58.925 199.117,60.300 199.133 C 61.991 199.152,62.802 199.005,62.806 198.680 C 62.810 198.379,62.971 198.424,63.237 198.800 C 63.600 199.314,63.638 199.316,63.501 198.811 C 63.325 198.163,60.930 197.866,60.571 198.447 C 60.451 198.641,59.993 198.800,59.553 198.800 C 59.113 198.800,58.864 198.620,59.000 198.400 C 59.287 197.935,59.214 197.932,58.400 198.370 M336.013 198.470 C 336.406 198.863,337.773 199.177,339.813 199.343 C 341.566 199.485,343.810 199.676,344.800 199.766 C 348.757 200.128,354.927 200.308,353.800 200.029 L 352.600 199.732 353.800 199.539 C 354.460 199.433,353.217 199.431,351.038 199.536 C 347.706 199.695,347.129 199.636,347.415 199.162 C 347.676 198.728,347.622 198.693,347.177 199.009 C 346.860 199.233,346.150 199.372,345.600 199.316 C 345.050 199.260,343.712 199.124,342.627 199.013 C 341.542 198.902,340.510 198.584,340.333 198.306 C 340.117 197.965,340.010 197.950,340.006 198.260 C 340.000 198.736,338.270 198.679,336.400 198.142 C 335.501 197.884,335.462 197.917,336.013 198.470 M51.305 199.410 C 50.689 199.726,49.633 199.763,47.922 199.529 C 46.554 199.342,45.247 199.267,45.017 199.363 C 44.788 199.458,45.140 199.564,45.800 199.597 C 46.853 199.649,46.902 199.700,46.200 200.017 C 45.685 200.248,46.671 200.311,48.964 200.192 C 52.827 199.991,52.890 199.976,52.478 199.364 C 52.289 199.083,51.913 199.098,51.305 199.410 M36.545 200.310 C 36.679 200.527,35.928 200.599,34.728 200.483 C 33.384 200.354,32.770 200.428,32.937 200.698 C 33.077 200.925,32.968 201.102,32.696 201.092 C 31.262 201.040,30.400 201.248,30.400 201.645 C 30.400 201.945,30.886 201.991,31.900 201.788 C 32.725 201.622,35.110 201.366,37.200 201.220 C 40.405 200.995,40.843 200.886,40.000 200.523 C 39.287 200.216,38.847 200.215,38.468 200.522 C 38.084 200.832,37.709 200.811,37.126 200.446 C 36.681 200.168,36.419 200.107,36.545 200.310 M41.206 200.700 C 41.211 201.254,41.285 201.285,41.561 200.849 C 41.753 200.546,42.098 200.414,42.328 200.555 C 42.557 200.697,42.858 200.630,42.996 200.407 C 43.141 200.172,42.815 200.000,42.224 200.000 C 41.513 200.000,41.202 200.214,41.206 200.700 M358.400 200.602 C 358.400 201.073,359.049 201.166,361.801 201.092 C 363.671 201.041,365.201 201.118,365.201 201.262 C 365.200 201.692,369.244 202.116,369.633 201.727 C 369.843 201.517,369.464 201.329,368.711 201.272 C 368.007 201.218,367.322 200.998,367.189 200.782 C 367.049 200.555,365.520 200.452,363.573 200.538 C 361.718 200.620,359.795 200.537,359.300 200.353 C 358.626 200.104,358.400 200.166,358.400 200.602 M27.743 201.108 C 27.890 201.345,27.693 201.622,27.305 201.723 C 26.768 201.863,26.815 201.918,27.500 201.954 C 28.457 202.003,28.707 201.437,27.938 200.962 C 27.664 200.792,27.585 200.851,27.743 201.108 M23.777 201.638 C 23.628 201.878,23.073 201.993,22.544 201.891 C 22.014 201.790,21.485 201.863,21.367 202.054 C 21.249 202.244,22.233 202.400,23.553 202.400 C 24.935 202.400,26.074 202.204,26.238 201.938 C 26.415 201.652,26.348 201.585,26.062 201.762 C 25.808 201.919,25.600 201.857,25.600 201.624 C 25.600 201.065,24.124 201.076,23.777 201.638 M371.044 201.671 C 371.298 202.083,373.088 202.105,373.337 201.700 C 373.438 201.535,372.917 201.387,372.180 201.371 C 371.443 201.355,370.932 201.490,371.044 201.671 M374.063 201.724 C 373.709 202.150,374.457 202.258,378.071 202.301 C 380.587 202.331,382.697 202.537,382.937 202.777 C 383.513 203.353,387.481 203.317,387.842 202.732 C 388.041 202.411,387.907 202.350,387.415 202.539 C 387.021 202.690,386.417 202.586,386.073 202.307 C 385.549 201.883,385.502 201.899,385.782 202.400 C 386.055 202.888,386.017 202.907,385.579 202.500 C 384.936 201.903,384.250 201.833,384.600 202.400 C 384.736 202.620,384.492 202.800,384.057 202.800 C 383.622 202.800,383.203 202.610,383.126 202.378 C 383.043 202.129,381.560 201.946,379.493 201.929 C 377.191 201.910,375.998 201.747,375.994 201.450 C 375.991 201.203,375.813 201.270,375.600 201.600 C 375.342 202.000,375.210 202.033,375.206 201.700 C 375.198 201.048,374.614 201.061,374.063 201.724 M7.810 202.298 C 6.716 202.382,5.561 202.665,5.245 202.926 C 4.799 203.293,4.632 203.288,4.502 202.900 C 4.409 202.625,4.084 202.400,3.779 202.400 C 3.449 202.400,3.319 202.644,3.457 203.005 C 3.623 203.437,3.506 203.539,3.045 203.362 C 2.234 203.051,1.073 203.471,1.378 203.964 C 1.517 204.189,2.151 204.183,3.000 203.949 C 4.185 203.622,4.530 203.690,5.293 204.401 C 5.930 204.994,6.485 205.166,7.196 204.991 C 9.082 204.526,9.027 204.000,7.093 204.000 C 5.597 204.000,5.271 203.881,5.455 203.400 C 5.582 203.070,5.857 202.800,6.066 202.800 C 6.276 202.800,6.324 203.000,6.172 203.245 C 5.831 203.796,9.991 203.318,10.600 202.736 C 10.857 202.489,10.727 202.457,10.234 202.644 C 9.700 202.848,9.556 202.795,9.758 202.468 C 9.917 202.211,9.992 202.032,9.924 202.072 C 9.856 202.112,8.905 202.213,7.810 202.298 M12.036 202.700 C 11.665 203.096,12.064 203.200,13.961 203.200 C 16.223 203.200,17.305 202.759,16.407 202.204 C 16.183 202.066,16.000 202.143,16.000 202.376 C 16.000 202.609,15.730 202.800,15.400 202.800 C 15.070 202.800,14.800 202.665,14.800 202.500 C 14.800 202.000,12.536 202.164,12.036 202.700 M389.200 202.837 C 389.200 202.974,390.288 203.200,391.618 203.339 C 392.949 203.478,394.371 203.770,394.778 203.988 C 395.332 204.285,395.578 204.235,395.747 203.793 C 395.899 203.397,395.721 203.200,395.211 203.200 C 394.791 203.200,394.330 203.010,394.186 202.777 C 393.913 202.336,389.200 202.392,389.200 202.837 M396.294 203.700 C 396.068 204.288,398.144 204.407,398.667 203.836 C 398.858 203.626,398.799 203.587,398.528 203.742 C 398.268 203.891,397.942 203.830,397.804 203.607 C 397.454 203.040,396.525 203.098,396.294 203.700 M9.376 204.362 C 9.530 204.610,9.823 204.709,10.028 204.583 C 10.232 204.456,10.400 204.507,10.400 204.696 C 10.400 204.885,11.055 204.963,11.855 204.870 C 12.856 204.753,13.223 204.839,13.034 205.145 C 12.857 205.432,12.989 205.502,13.406 205.342 C 14.425 204.951,13.589 204.506,11.249 204.196 C 9.693 203.990,9.175 204.036,9.376 204.362 M388.000 204.314 C 385.755 204.544,385.844 205.006,388.120 204.939 C 389.264 204.905,390.200 204.836,390.200 204.787 C 390.200 204.491,392.685 204.598,393.095 204.911 C 393.701 205.375,394.946 204.960,394.605 204.408 C 394.374 204.035,391.169 203.989,388.000 204.314 M15.093 205.166 C 14.861 206.052,15.408 206.346,15.714 205.500 C 15.858 205.103,16.076 205.107,16.772 205.519 C 17.656 206.041,21.707 206.097,21.389 205.582 C 21.295 205.430,20.449 205.187,19.509 205.042 C 18.569 204.897,17.240 204.678,16.556 204.555 C 15.529 204.371,15.273 204.478,15.093 205.166 M381.200 204.944 C 378.418 205.521,378.179 206.248,380.833 206.061 C 381.914 205.985,382.699 205.760,382.576 205.561 C 382.453 205.363,382.903 205.200,383.576 205.200 C 384.249 205.200,384.800 205.020,384.800 204.800 C 384.800 204.316,384.085 204.345,381.200 204.944 M22.800 205.555 C 22.800 205.992,26.243 206.544,26.805 206.197 C 27.030 206.058,27.109 205.777,26.983 205.572 C 26.689 205.097,22.800 205.081,22.800 205.555 M372.984 205.627 C 372.540 206.345,373.083 206.508,374.972 206.225 C 377.504 205.845,377.677 205.200,375.247 205.200 C 374.147 205.200,373.129 205.392,372.984 205.627 M30.000 206.378 L 31.000 206.720 30.000 206.792 C 29.450 206.831,29.243 206.960,29.539 207.078 C 29.836 207.196,30.499 207.068,31.012 206.793 C 31.584 206.487,32.228 206.423,32.673 206.628 C 33.585 207.047,37.197 207.105,37.199 206.700 C 37.199 206.535,36.885 206.392,36.500 206.383 C 36.115 206.373,34.270 206.291,32.400 206.200 C 30.204 206.093,29.354 206.156,30.000 206.378 M364.000 206.442 C 363.230 206.581,362.690 206.735,362.800 206.785 C 363.076 206.910,365.945 206.827,367.400 206.651 C 368.060 206.572,368.815 206.677,369.078 206.884 C 369.341 207.092,369.971 207.182,370.478 207.085 C 371.255 206.937,371.212 206.894,370.200 206.815 C 369.005 206.721,369.005 206.719,370.000 206.384 C 371.179 205.988,366.253 206.036,364.000 206.442 M38.800 206.853 C 38.800 207.267,39.703 207.433,42.500 207.533 C 46.687 207.684,47.135 207.379,43.200 207.056 C 41.770 206.939,40.195 206.723,39.700 206.575 C 39.075 206.389,38.800 206.474,38.800 206.853 M359.998 206.671 C 359.997 206.852,358.152 207.062,355.898 207.138 C 353.644 207.215,351.710 207.402,351.600 207.555 C 351.490 207.709,350.860 207.873,350.200 207.920 C 349.540 207.968,348.940 208.185,348.867 208.403 C 348.793 208.622,348.433 208.797,348.067 208.794 C 347.487 208.789,347.478 208.733,348.000 208.369 C 348.429 208.070,347.693 208.017,345.425 208.184 C 342.288 208.414,340.957 208.755,342.833 208.847 C 343.365 208.873,343.965 208.863,344.166 208.825 C 345.504 208.572,347.200 208.598,347.200 208.873 C 347.200 209.317,348.548 209.289,349.020 208.835 C 349.229 208.634,350.120 208.409,351.000 208.335 C 351.880 208.261,352.749 208.020,352.930 207.800 C 353.144 207.542,353.335 207.583,353.469 207.917 C 353.619 208.289,353.821 208.314,354.190 208.008 C 354.472 207.775,356.254 207.542,358.151 207.492 C 360.234 207.436,361.547 207.242,361.467 207.000 C 361.303 206.507,360.001 206.215,359.998 206.671 M47.200 207.777 C 47.750 208.104,48.697 208.378,49.305 208.386 C 49.913 208.394,50.742 208.607,51.147 208.860 C 51.683 209.195,52.216 209.203,53.114 208.890 C 53.791 208.654,54.718 208.558,55.173 208.677 C 55.628 208.796,56.000 208.724,56.000 208.517 C 56.000 208.311,54.623 208.122,52.941 208.099 C 51.060 208.073,49.769 207.874,49.589 207.583 C 49.372 207.232,49.241 207.250,49.079 207.655 C 48.939 208.005,48.742 208.057,48.530 207.800 C 48.349 207.580,47.750 207.351,47.200 207.291 L 46.200 207.182 47.200 207.777 M56.896 208.969 C 57.173 209.267,57.490 209.396,57.600 209.256 C 57.896 208.878,59.680 208.747,59.449 209.120 C 59.341 209.296,59.826 209.456,60.526 209.477 C 63.331 209.560,63.638 209.615,63.403 209.995 C 63.263 210.222,63.423 210.289,63.779 210.153 C 65.440 209.515,63.658 208.971,58.696 208.598 C 56.770 208.454,56.475 208.515,56.896 208.969 M338.692 208.875 C 338.421 209.047,337.570 209.211,336.800 209.240 C 336.030 209.269,335.717 209.376,336.105 209.477 C 336.516 209.584,336.692 209.856,336.528 210.130 C 336.316 210.485,336.388 210.488,336.823 210.145 C 337.421 209.674,340.697 208.968,341.400 209.158 C 341.620 209.218,341.650 209.117,341.467 208.933 C 341.039 208.505,339.330 208.470,338.692 208.875 M64.800 209.624 C 64.800 209.857,64.980 209.936,65.200 209.800 C 65.420 209.664,65.600 209.705,65.600 209.891 C 65.600 210.077,66.185 210.266,66.900 210.311 C 68.127 210.387,68.157 210.358,67.424 209.796 C 66.530 209.110,64.800 208.997,64.800 209.624 M332.478 209.854 C 331.832 210.547,333.527 210.435,334.600 209.714 C 335.349 209.212,335.321 209.183,334.170 209.268 C 333.494 209.318,332.732 209.582,332.478 209.854 M69.077 210.657 C 69.313 211.272,70.000 211.397,70.000 210.825 C 70.000 210.617,70.651 210.556,71.462 210.688 C 72.403 210.840,72.835 210.780,72.674 210.520 C 72.271 209.867,68.825 209.999,69.077 210.657 M327.415 210.319 C 326.845 210.888,327.333 211.086,328.602 210.800 C 329.384 210.623,330.102 210.642,330.226 210.842 C 330.583 211.419,331.467 211.253,331.467 210.609 C 331.467 210.029,327.956 209.777,327.415 210.319 M73.333 210.995 C 73.333 211.459,73.455 211.486,73.897 211.119 C 74.236 210.839,74.569 210.801,74.730 211.026 C 75.112 211.555,77.200 211.716,77.200 211.215 C 77.200 210.987,77.065 210.785,76.900 210.766 C 73.713 210.407,73.333 210.431,73.333 210.995 M322.800 210.841 C 322.030 211.028,320.725 211.284,319.900 211.409 C 317.736 211.737,318.055 212.323,320.361 212.257 C 321.440 212.225,322.253 212.087,322.168 211.949 C 322.018 211.706,324.292 211.038,324.900 211.146 C 325.065 211.176,325.200 211.020,325.200 210.800 C 325.200 210.348,324.800 210.355,322.800 210.841 M325.600 210.800 C 325.600 211.020,325.870 211.200,326.200 211.200 C 326.530 211.200,326.800 211.020,326.800 210.800 C 326.800 210.580,326.530 210.400,326.200 210.400 C 325.870 210.400,325.600 210.580,325.600 210.800 M78.948 211.787 C 80.506 212.342,81.784 212.222,81.374 211.558 C 81.252 211.361,80.308 211.208,79.276 211.218 L 77.400 211.235 78.948 211.787 M82.655 212.600 C 82.513 212.972,82.657 213.200,83.036 213.200 C 83.394 213.200,83.530 213.010,83.364 212.742 C 83.165 212.419,83.395 212.362,84.140 212.549 C 84.767 212.707,85.200 212.649,85.200 212.408 C 85.200 211.757,82.912 211.930,82.655 212.600 M315.200 212.441 C 314.718 212.785,314.777 212.831,315.500 212.672 C 315.995 212.564,316.400 212.638,316.400 212.837 C 316.400 213.438,317.497 213.245,317.745 212.600 C 318.022 211.878,316.152 211.761,315.200 212.441 M85.733 212.955 C 85.733 213.534,86.268 213.585,87.072 213.082 C 87.332 212.920,87.658 212.970,87.796 213.193 C 87.934 213.417,88.442 213.603,88.924 213.606 C 89.583 213.611,89.663 213.699,89.245 213.964 C 88.876 214.197,89.145 214.277,90.045 214.201 C 90.834 214.134,91.686 214.339,92.085 214.692 C 92.517 215.073,93.035 215.183,93.485 214.989 C 94.443 214.576,96.132 214.773,96.483 215.338 C 96.693 215.675,96.892 215.668,97.250 215.310 C 97.833 214.727,97.486 214.579,94.657 214.199 C 93.313 214.019,92.797 214.071,92.981 214.369 C 93.414 215.070,92.862 214.862,92.000 214.000 C 91.467 213.467,90.667 213.200,89.600 213.200 C 88.720 213.200,88.000 213.020,88.000 212.800 C 88.000 212.580,87.490 212.400,86.867 212.400 C 86.167 212.400,85.733 212.612,85.733 212.955 M312.669 212.912 C 312.785 213.100,312.637 213.220,312.340 213.179 C 310.350 212.906,308.882 213.244,308.678 214.023 C 308.513 214.653,308.582 214.747,308.968 214.426 C 309.246 214.196,309.592 214.125,309.737 214.270 C 309.882 214.415,310.000 214.323,310.000 214.067 C 310.000 213.810,310.281 213.600,310.624 213.600 C 310.967 213.600,311.136 213.780,311.000 214.000 C 310.643 214.578,311.276 214.469,312.159 213.800 C 312.576 213.484,313.051 213.308,313.214 213.408 C 313.376 213.509,313.732 213.323,314.003 212.996 C 314.420 212.494,314.338 212.414,313.477 212.485 C 312.917 212.532,312.553 212.724,312.669 212.912 M307.277 213.885 C 306.205 214.090,306.310 214.933,307.433 215.143 C 307.855 215.222,308.067 215.149,307.903 214.980 C 307.740 214.812,307.807 214.432,308.052 214.137 C 308.297 213.842,308.431 213.625,308.349 213.654 C 308.267 213.684,307.785 213.788,307.277 213.885 M304.500 214.322 C 303.728 214.398,303.200 214.673,303.200 214.999 C 303.200 215.603,305.107 215.442,305.773 214.783 C 306.289 214.272,306.012 214.172,304.500 214.322 M97.817 215.572 C 97.691 215.777,97.798 216.075,98.055 216.234 C 98.357 216.420,98.416 216.350,98.222 216.036 C 97.997 215.672,98.310 215.607,99.461 215.779 C 100.593 215.948,100.789 215.909,100.200 215.632 C 99.145 215.136,98.103 215.110,97.817 215.572 M299.800 215.485 C 299.360 215.591,298.829 215.840,298.620 216.039 C 298.411 216.237,297.862 216.400,297.400 216.400 C 296.938 216.400,296.347 216.613,296.087 216.873 C 295.827 217.133,295.116 217.391,294.507 217.446 C 293.059 217.575,292.305 217.757,291.736 218.113 C 291.480 218.272,290.805 218.442,290.236 218.489 C 289.666 218.536,289.200 218.715,289.200 218.887 C 289.200 219.059,288.860 219.200,288.444 219.200 C 288.028 219.200,286.903 219.556,285.944 219.991 C 284.755 220.530,284.472 220.785,285.054 220.791 C 285.524 220.796,286.424 220.532,287.054 220.205 C 287.738 219.850,288.254 219.770,288.334 220.007 C 288.408 220.226,288.927 220.043,289.488 219.602 C 290.638 218.697,291.374 218.550,290.994 219.300 C 290.855 219.575,290.995 219.490,291.307 219.111 C 291.625 218.722,292.239 218.492,292.710 218.583 C 293.171 218.672,293.769 218.478,294.039 218.153 C 294.357 217.770,294.620 217.709,294.789 217.982 C 294.953 218.248,295.339 218.130,295.845 217.658 C 296.315 217.221,297.089 216.963,297.729 217.031 C 298.326 217.095,298.711 216.979,298.584 216.773 C 298.457 216.568,298.723 216.378,299.176 216.350 C 300.175 216.289,300.332 216.247,301.600 215.690 L 302.600 215.251 301.600 215.272 C 301.050 215.283,300.240 215.379,299.800 215.485 M101.200 216.486 C 101.200 217.198,101.283 217.231,101.877 216.749 C 102.325 216.385,102.453 216.367,102.256 216.695 C 102.048 217.043,102.164 217.112,102.645 216.927 C 103.031 216.779,103.230 216.828,103.100 217.038 C 102.973 217.243,103.439 217.429,104.135 217.452 C 104.831 217.474,105.174 217.411,104.898 217.312 C 104.621 217.213,104.514 216.939,104.660 216.703 C 104.831 216.426,104.619 216.354,104.063 216.499 C 103.589 216.623,103.113 216.584,103.007 216.411 C 102.522 215.626,101.200 215.681,101.200 216.486 M106.360 217.913 C 106.888 218.342,107.651 218.607,108.055 218.502 C 108.496 218.386,108.889 218.567,109.038 218.955 C 109.348 219.762,109.959 219.805,109.843 219.012 C 109.727 218.224,109.554 218.085,108.391 217.841 C 107.846 217.728,106.950 217.521,106.400 217.383 L 105.400 217.132 106.360 217.913 M110.400 219.067 C 110.400 219.433,110.517 219.616,110.660 219.473 C 110.804 219.330,111.119 219.471,111.360 219.788 C 111.741 220.285,111.908 220.277,112.600 219.728 C 113.228 219.229,113.252 219.143,112.712 219.329 C 112.333 219.459,111.761 219.304,111.440 218.983 C 110.681 218.224,110.400 218.247,110.400 219.067 M114.000 220.200 C 114.000 220.530,114.135 220.779,114.300 220.753 C 115.094 220.627,115.623 220.840,115.403 221.195 C 115.263 221.422,115.423 221.489,115.779 221.353 C 116.663 221.013,116.548 220.400,115.600 220.400 C 115.160 220.400,114.800 220.220,114.800 220.000 C 114.800 219.780,114.620 219.600,114.400 219.600 C 114.180 219.600,114.000 219.870,114.000 220.200 M283.373 220.741 C 283.168 220.921,282.100 221.391,281.000 221.786 C 278.669 222.624,277.584 223.413,279.400 222.951 C 280.060 222.783,280.902 222.642,281.271 222.637 C 281.639 222.632,281.838 222.461,281.711 222.256 C 281.577 222.039,281.965 221.985,282.640 222.126 C 283.278 222.259,283.565 222.267,283.279 222.144 C 282.887 221.975,282.936 221.789,283.478 221.392 C 283.874 221.103,284.097 220.764,283.973 220.639 C 283.848 220.515,283.579 220.561,283.373 220.741 M117.384 221.627 C 117.239 221.861,117.228 222.161,117.360 222.293 C 117.492 222.425,117.600 222.329,117.600 222.079 C 117.600 221.829,117.869 221.728,118.198 221.854 C 118.526 221.981,118.720 222.206,118.627 222.356 C 118.534 222.506,118.806 222.629,119.229 222.629 C 120.298 222.629,120.192 222.216,118.981 221.664 C 117.737 221.097,117.711 221.097,117.384 221.627 M120.406 223.100 C 120.410 223.599,120.503 223.657,120.730 223.300 C 120.977 222.911,121.219 222.940,121.824 223.430 C 122.251 223.776,122.330 223.930,122.000 223.771 C 121.490 223.526,121.483 223.567,121.950 224.041 C 122.358 224.455,122.546 224.476,122.677 224.120 C 122.801 223.783,123.143 223.750,123.827 224.010 C 124.391 224.225,124.800 224.230,124.800 224.022 C 124.800 223.825,124.262 223.545,123.605 223.401 C 122.947 223.257,122.306 222.972,122.181 222.769 C 121.770 222.105,120.400 222.360,120.406 223.100 M276.474 223.622 C 275.943 223.835,275.666 224.183,275.824 224.439 C 276.022 224.758,276.188 224.743,276.410 224.384 C 276.580 224.109,276.977 223.982,277.293 224.104 C 277.623 224.230,277.867 224.086,277.867 223.762 C 277.867 223.121,277.752 223.110,276.474 223.622 M125.000 224.800 C 124.864 225.020,124.943 225.222,125.176 225.250 C 125.409 225.278,125.748 225.322,125.929 225.350 C 126.109 225.378,126.572 225.715,126.957 226.100 C 127.826 226.969,127.817 226.970,127.890 226.000 C 127.931 225.454,127.704 225.200,127.175 225.200 C 126.749 225.200,126.400 225.020,126.400 224.800 C 126.400 224.580,126.141 224.400,125.824 224.400 C 125.507 224.400,125.136 224.580,125.000 224.800 M272.270 225.544 C 271.396 225.888,271.342 226.515,272.177 226.638 C 272.506 226.686,272.736 226.517,272.688 226.263 C 272.639 226.008,272.933 225.857,273.340 225.927 C 273.784 226.003,273.975 225.883,273.817 225.627 C 273.519 225.146,273.309 225.134,272.270 225.544 M128.400 226.334 C 128.400 226.924,129.272 227.401,130.100 227.265 C 130.517 227.196,130.800 227.402,130.800 227.775 C 130.800 228.119,130.980 228.400,131.200 228.400 C 131.420 228.400,131.600 228.233,131.600 228.029 C 131.600 227.564,130.459 226.400,130.004 226.400 C 129.818 226.400,129.381 226.291,129.033 226.157 C 128.685 226.024,128.400 226.103,128.400 226.334 M270.233 226.700 C 270.068 226.865,269.813 227.024,269.667 227.054 C 268.384 227.313,267.587 227.790,267.746 228.204 C 267.851 228.478,267.727 228.926,267.469 229.198 C 267.136 229.550,267.254 229.541,267.873 229.167 C 268.354 228.878,268.714 228.452,268.673 228.220 C 268.633 227.989,269.004 227.814,269.498 227.832 C 269.992 227.849,270.309 227.775,270.202 227.668 C 270.095 227.561,270.207 227.232,270.452 226.937 C 270.921 226.372,270.748 226.185,270.233 226.700 M132.114 228.092 C 132.216 228.371,132.525 228.548,132.799 228.484 C 133.117 228.409,133.205 228.611,133.040 229.040 C 132.814 229.630,132.866 229.645,133.466 229.157 C 134.070 228.665,134.118 228.684,133.879 229.321 C 133.728 229.724,133.771 229.941,133.977 229.814 C 134.179 229.689,134.457 229.769,134.595 229.991 C 135.223 231.009,136.400 231.252,136.400 230.365 C 136.400 229.672,136.290 229.593,135.842 229.965 C 135.414 230.321,135.298 230.309,135.342 229.914 C 135.374 229.631,135.240 229.370,135.045 229.334 C 134.849 229.298,134.579 229.114,134.445 228.926 C 133.972 228.265,131.907 227.526,132.114 228.092 M266.200 228.800 C 266.336 229.020,266.167 229.200,265.824 229.200 C 265.481 229.200,264.874 229.526,264.475 229.925 C 264.076 230.324,263.536 230.579,263.275 230.492 C 262.553 230.251,262.708 231.079,263.437 231.359 C 263.861 231.522,264.144 231.337,264.282 230.806 C 264.397 230.368,264.616 230.086,264.769 230.181 C 264.922 230.275,265.576 229.920,266.223 229.391 C 267.163 228.622,267.254 228.426,266.676 228.414 C 266.278 228.406,266.064 228.580,266.200 228.800 M137.637 231.327 C 138.166 231.837,138.735 232.186,138.900 232.103 C 139.065 232.020,139.200 232.173,139.200 232.443 C 139.200 232.713,139.318 232.815,139.463 232.670 C 139.814 232.319,140.848 233.198,140.585 233.624 C 140.471 233.808,140.760 233.885,141.226 233.795 C 141.890 233.667,142.017 233.780,141.813 234.316 C 141.609 234.852,141.658 234.895,142.039 234.517 C 142.531 234.029,141.893 232.710,141.262 232.908 C 141.118 232.953,140.158 232.407,139.128 231.695 C 136.935 230.178,136.273 230.015,137.637 231.327 M261.400 231.600 C 261.002 232.040,260.462 232.400,260.200 232.400 C 259.938 232.400,259.398 232.760,259.000 233.200 C 258.602 233.640,258.004 234.000,257.671 234.000 C 256.931 234.000,257.387 234.522,258.236 234.646 C 258.574 234.696,258.947 234.482,259.067 234.171 C 259.186 233.859,259.473 233.721,259.704 233.864 C 259.957 234.021,260.004 233.930,259.822 233.635 C 259.632 233.328,259.725 233.194,260.072 233.273 C 260.375 233.343,260.618 233.293,260.612 233.161 C 260.587 232.661,261.707 231.619,262.045 231.828 C 262.240 231.949,262.400 231.767,262.400 231.424 C 262.400 230.614,262.272 230.637,261.400 231.600 M142.578 234.836 C 142.323 235.248,142.298 235.233,143.459 235.363 C 144.344 235.463,145.710 236.557,145.371 236.895 C 145.266 237.000,145.490 237.337,145.867 237.643 C 146.321 238.012,146.452 238.031,146.253 237.700 C 146.088 237.425,146.143 237.200,146.376 237.200 C 146.609 237.200,146.800 237.453,146.800 237.763 C 146.800 238.152,147.077 238.249,147.700 238.079 C 148.432 237.878,148.469 237.805,147.900 237.687 C 147.515 237.607,147.200 237.375,147.200 237.171 C 147.200 236.967,147.004 236.800,146.764 236.800 C 146.524 236.800,145.817 236.317,145.192 235.728 C 143.986 234.589,142.949 234.235,142.578 234.836 M254.800 235.936 C 254.800 236.120,254.350 236.477,253.800 236.727 C 253.250 236.978,252.800 237.403,252.800 237.671 C 252.800 238.051,252.907 238.053,253.280 237.680 C 253.893 237.067,254.538 237.054,254.162 237.662 C 253.984 237.950,254.052 238.015,254.345 237.834 C 254.602 237.675,254.709 237.377,254.583 237.172 C 254.377 236.839,254.913 236.633,255.686 236.748 C 255.843 236.771,255.868 236.523,255.743 236.195 C 255.500 235.563,254.800 235.370,254.800 235.936 M148.200 238.800 C 148.336 239.020,148.702 239.200,149.013 239.200 C 149.325 239.200,149.855 239.734,150.193 240.386 C 150.593 241.160,151.014 241.493,151.403 241.343 C 151.944 241.136,152.197 241.610,152.037 242.530 C 152.006 242.711,152.158 242.750,152.375 242.615 C 152.885 242.300,154.505 243.906,154.191 244.415 C 154.060 244.627,154.214 244.800,154.534 244.800 C 154.853 244.800,155.219 245.072,155.346 245.404 C 155.473 245.736,155.718 245.961,155.889 245.904 C 156.060 245.847,156.200 245.916,156.200 246.058 C 156.200 246.569,157.736 248.000,158.286 248.000 C 158.594 248.000,158.736 248.180,158.600 248.400 C 158.332 248.834,158.910 248.957,159.315 248.551 C 159.628 248.239,152.797 241.443,150.417 239.700 C 148.656 238.410,147.725 238.032,148.200 238.800 M247.073 242.085 C 245.468 243.255,243.600 245.197,243.600 245.697 C 243.600 245.937,243.494 246.027,243.364 245.897 C 243.150 245.683,241.755 247.009,238.100 250.901 C 237.385 251.662,236.800 252.592,236.800 252.966 C 236.800 253.341,236.631 253.543,236.425 253.415 C 236.219 253.288,235.490 253.997,234.806 254.992 C 234.121 255.986,233.761 256.800,234.004 256.800 C 234.248 256.800,234.341 256.972,234.211 257.183 C 234.081 257.393,233.734 257.473,233.441 257.360 C 233.133 257.242,232.556 257.709,232.081 258.460 C 231.244 259.782,231.258 260.405,232.124 260.394 C 232.434 260.390,232.406 260.265,232.044 260.036 C 231.612 259.762,231.745 259.536,232.644 259.017 C 233.280 258.649,233.445 258.460,233.012 258.596 C 232.053 258.896,232.450 258.448,233.693 257.829 C 234.192 257.580,234.623 257.157,234.650 256.888 C 234.678 256.620,234.722 256.209,234.750 255.976 C 234.778 255.743,234.978 255.663,235.195 255.797 C 235.431 255.943,235.484 255.762,235.326 255.351 C 235.117 254.807,235.215 254.720,235.787 254.940 C 236.368 255.163,236.423 255.109,236.060 254.672 C 235.540 254.046,235.841 253.564,236.575 253.846 C 236.848 253.951,237.326 253.724,237.636 253.341 C 238.001 252.892,238.023 252.753,237.700 252.947 C 236.916 253.418,237.115 252.650,237.966 251.922 C 238.388 251.561,238.853 251.386,239.000 251.533 C 239.146 251.680,239.207 251.530,239.133 251.200 C 239.057 250.858,239.236 250.650,239.549 250.716 C 239.897 250.790,240.012 250.609,239.863 250.220 C 239.703 249.802,239.939 249.530,240.611 249.361 C 241.152 249.226,241.525 248.999,241.439 248.857 C 241.239 248.526,242.249 247.583,242.517 247.851 C 242.629 247.962,242.693 247.726,242.660 247.327 C 242.622 246.867,242.851 246.619,243.284 246.653 C 243.661 246.682,243.931 246.517,243.884 246.286 C 243.838 246.055,244.208 245.652,244.707 245.392 C 245.870 244.786,246.385 244.277,245.488 244.622 C 245.110 244.767,244.800 244.767,244.800 244.622 C 244.800 244.477,245.340 244.170,246.000 243.940 C 246.659 243.710,247.099 243.360,246.976 243.161 C 246.770 242.827,247.349 242.627,248.130 242.763 C 248.311 242.794,248.354 242.649,248.225 242.440 C 248.096 242.231,248.307 241.997,248.695 241.918 C 249.292 241.798,249.305 241.739,248.783 241.533 C 248.444 241.399,247.674 241.647,247.073 242.085 M160.400 250.000 C 160.950 250.430,161.168 250.786,160.884 250.791 C 160.463 250.798,160.463 250.903,160.884 251.358 C 161.168 251.665,161.535 251.834,161.700 251.734 C 161.865 251.635,162.000 251.844,162.000 252.200 C 162.000 252.556,162.181 252.735,162.403 252.598 C 162.624 252.461,162.894 252.631,163.003 252.975 C 163.653 255.038,163.666 255.054,163.975 254.225 C 164.169 253.702,163.992 253.131,163.432 252.475 C 161.399 250.096,160.442 249.201,159.940 249.209 C 159.638 249.214,159.841 249.563,160.400 250.000 M164.414 254.169 C 164.406 254.371,164.698 254.866,165.062 255.269 C 165.493 255.745,165.555 256.000,165.238 256.000 C 164.971 256.000,164.876 256.199,165.026 256.443 C 165.217 256.751,165.404 256.721,165.644 256.343 C 165.922 255.904,165.989 255.901,165.994 256.329 C 165.997 256.619,166.272 257.129,166.604 257.461 C 166.936 257.793,167.106 258.228,166.983 258.428 C 166.859 258.627,167.037 258.684,167.377 258.554 C 167.915 258.347,167.895 258.180,167.218 257.258 C 165.742 255.249,164.429 253.801,164.414 254.169 M167.400 259.200 C 167.264 259.420,167.354 259.600,167.600 259.600 C 167.846 259.600,167.937 259.778,167.803 259.995 C 167.664 260.220,167.820 260.291,168.163 260.159 C 168.617 259.985,168.725 260.150,168.597 260.817 C 168.502 261.307,168.531 261.602,168.660 261.473 C 169.024 261.109,170.083 262.342,169.800 262.800 C 169.662 263.023,169.830 263.313,170.172 263.445 C 170.515 263.576,170.672 263.890,170.521 264.142 C 170.370 264.394,170.581 264.330,170.989 264.000 C 171.709 263.419,171.707 263.396,170.925 263.280 C 170.305 263.188,170.162 262.934,170.306 262.180 C 170.409 261.639,170.304 261.200,170.069 261.200 C 169.836 261.200,169.326 260.660,168.936 260.000 C 168.191 258.738,167.809 258.539,167.400 259.200 M230.400 260.771 C 230.400 260.976,230.109 261.434,229.752 261.790 C 229.396 262.147,229.197 262.530,229.309 262.642 C 229.421 262.754,229.905 262.296,230.384 261.623 C 230.863 260.950,231.062 260.400,230.827 260.400 C 230.592 260.400,230.400 260.567,230.400 260.771 M229.356 263.192 C 228.318 263.611,227.941 264.485,228.475 265.236 C 228.792 265.683,228.829 265.654,228.650 265.100 C 228.526 264.715,228.610 264.400,228.836 264.400 C 229.062 264.400,229.136 264.220,229.000 264.000 C 228.864 263.780,229.023 263.600,229.353 263.600 C 229.683 263.600,230.064 263.420,230.200 263.200 C 230.485 262.739,230.478 262.739,229.356 263.192 M171.200 264.400 C 171.200 264.620,171.401 264.800,171.647 264.800 C 171.903 264.800,172.000 265.157,171.874 265.640 C 171.753 266.101,171.761 266.372,171.891 266.242 C 172.022 266.112,172.411 266.409,172.757 266.903 C 173.103 267.396,173.299 267.858,173.193 267.928 C 173.087 267.999,173.325 268.238,173.722 268.460 C 174.230 268.745,174.325 269.008,174.043 269.349 C 173.754 269.696,173.848 269.848,174.376 269.888 C 175.225 269.952,175.086 268.736,174.157 267.964 C 173.851 267.710,173.600 267.254,173.600 266.951 C 173.600 266.648,173.459 266.400,173.288 266.400 C 173.116 266.400,172.772 265.860,172.522 265.200 C 172.096 264.069,171.200 263.528,171.200 264.400 M227.200 265.800 C 227.200 266.130,227.047 266.400,226.861 266.400 C 226.674 266.400,226.182 267.165,225.768 268.100 C 225.353 269.035,224.786 270.038,224.507 270.329 C 224.228 270.619,224.000 271.104,224.000 271.405 C 224.000 272.160,224.681 272.515,225.034 271.945 C 225.226 271.634,225.134 271.575,224.762 271.768 C 224.453 271.928,224.549 271.776,224.976 271.430 C 225.541 270.972,225.596 270.798,225.176 270.794 C 224.691 270.789,224.694 270.728,225.200 270.408 C 225.785 270.038,225.847 269.887,225.950 268.557 C 225.981 268.162,226.229 268.002,226.593 268.142 C 227.018 268.305,227.159 268.123,227.093 267.495 C 227.042 267.015,227.210 266.617,227.467 266.611 C 227.723 266.605,228.083 266.436,228.267 266.236 C 228.464 266.020,228.369 266.006,228.032 266.201 C 227.609 266.447,227.529 266.361,227.719 265.866 C 227.860 265.500,227.801 265.200,227.587 265.200 C 227.374 265.200,227.200 265.470,227.200 265.800 M174.598 270.803 C 174.461 271.024,174.622 271.310,174.956 271.439 C 175.830 271.774,177.185 274.237,177.007 275.165 C 176.905 275.692,177.030 275.887,177.383 275.751 C 178.084 275.482,177.732 274.126,176.545 272.527 C 176.025 271.826,175.600 271.061,175.600 270.827 C 175.600 270.286,174.927 270.270,174.598 270.803 M221.909 275.200 C 220.778 277.473,220.415 279.194,221.404 277.593 C 221.542 277.370,221.821 277.289,222.023 277.414 C 222.225 277.539,222.284 277.362,222.153 277.021 C 222.010 276.649,222.132 276.398,222.457 276.394 C 222.876 276.389,222.863 276.299,222.400 276.000 C 221.891 275.671,221.910 275.611,222.524 275.606 C 222.922 275.603,223.136 275.420,223.000 275.201 C 222.690 274.699,223.770 273.103,224.157 273.490 C 224.314 273.647,224.324 273.466,224.178 273.088 C 223.736 271.935,223.359 272.286,221.909 275.200 M177.375 276.441 C 177.196 276.730,177.245 276.820,177.496 276.664 C 177.727 276.521,178.023 276.683,178.154 277.023 C 178.310 277.430,178.221 277.556,177.895 277.390 C 177.623 277.252,177.772 277.470,178.227 277.874 C 178.682 278.279,179.275 278.968,179.546 279.405 C 180.000 280.138,180.017 280.122,179.765 279.200 C 179.615 278.650,179.357 278.110,179.192 278.000 C 179.027 277.890,178.827 277.455,178.746 277.033 C 178.570 276.109,177.788 275.772,177.375 276.441 M220.164 279.400 C 220.026 279.950,219.781 280.400,219.620 280.400 C 219.353 280.400,218.419 282.943,218.152 284.393 C 218.093 284.719,217.853 285.049,217.619 285.127 C 217.131 285.290,217.460 286.000,218.024 286.000 C 218.231 286.000,218.400 285.730,218.400 285.400 C 218.400 285.070,218.591 284.800,218.824 284.800 C 219.057 284.800,219.124 284.600,218.972 284.355 C 218.821 284.111,218.946 283.753,219.249 283.561 C 219.668 283.296,219.677 283.211,219.286 283.206 C 218.894 283.201,218.875 283.008,219.206 282.389 C 219.445 281.943,219.794 281.673,219.983 281.789 C 220.171 281.906,220.224 281.613,220.100 281.138 C 219.952 280.574,220.025 280.368,220.309 280.544 C 220.549 280.692,220.850 280.643,220.979 280.434 C 221.108 280.226,221.038 279.947,220.824 279.815 C 220.610 279.683,220.536 279.310,220.660 278.987 C 220.784 278.664,220.780 278.400,220.650 278.400 C 220.521 278.400,220.302 278.850,220.164 279.400 M180.089 281.371 C 180.134 281.905,180.300 282.262,180.459 282.163 C 180.841 281.928,180.719 280.400,180.319 280.400 C 180.149 280.400,180.045 280.837,180.089 281.371 M180.879 283.495 C 180.491 283.633,180.542 283.832,181.079 284.270 C 181.475 284.594,181.577 284.747,181.305 284.609 C 180.979 284.444,180.891 284.570,181.046 284.977 C 181.177 285.317,181.445 285.496,181.642 285.374 C 181.839 285.252,182.023 285.523,182.050 285.976 C 182.078 286.429,182.145 286.980,182.200 287.200 C 182.255 287.420,182.322 287.816,182.350 288.080 C 182.383 288.399,182.534 288.426,182.799 288.161 C 183.538 287.422,181.789 283.171,180.879 283.495 M217.153 286.700 C 217.127 286.865,217.127 287.135,217.153 287.300 C 217.179 287.465,217.001 287.600,216.757 287.600 C 216.514 287.600,216.414 287.858,216.535 288.174 C 216.656 288.490,216.630 288.805,216.478 288.874 C 216.210 288.996,214.821 292.489,214.643 293.488 C 214.596 293.757,214.431 294.102,214.278 294.255 C 213.843 294.690,213.952 296.077,214.400 295.800 C 214.620 295.664,214.800 295.731,214.800 295.949 C 214.800 296.168,214.470 296.451,214.067 296.579 C 213.663 296.707,213.332 297.034,213.330 297.306 C 213.327 297.578,213.203 298.180,213.054 298.644 C 212.885 299.169,212.994 299.663,213.343 299.952 C 213.794 300.327,213.940 300.223,214.094 299.421 C 214.199 298.873,214.130 298.519,213.942 298.636 C 213.360 298.995,213.562 298.376,214.420 297.172 C 215.098 296.220,215.159 295.870,214.773 295.150 C 214.387 294.428,214.407 294.317,214.891 294.503 C 215.335 294.673,215.435 294.472,215.306 293.663 C 215.169 292.799,215.223 292.712,215.595 293.200 C 215.964 293.685,216.001 293.617,215.783 292.850 C 215.635 292.327,215.669 291.994,215.857 292.109 C 216.046 292.225,216.234 291.680,216.276 290.898 C 216.318 290.117,216.585 289.333,216.870 289.157 C 217.315 288.882,217.741 286.400,217.343 286.400 C 217.264 286.400,217.179 286.535,217.153 286.700 M182.866 288.754 C 182.443 289.020,182.473 289.142,183.012 289.349 C 183.575 289.565,183.603 289.715,183.177 290.227 C 182.755 290.736,182.765 290.824,183.232 290.723 C 183.545 290.655,183.753 290.831,183.696 291.112 C 183.639 291.394,183.965 292.024,184.421 292.512 C 185.308 293.463,185.307 293.268,184.412 291.000 C 184.238 290.560,183.939 289.800,183.748 289.310 C 183.510 288.701,183.232 288.526,182.866 288.754 M184.637 293.939 C 184.481 294.193,184.564 294.400,184.823 294.400 C 185.109 294.400,185.218 294.792,185.102 295.400 C 184.997 295.950,185.077 296.400,185.279 296.400 C 185.482 296.400,185.519 296.608,185.362 296.862 C 185.172 297.169,185.254 297.214,185.606 296.996 C 185.987 296.761,186.067 296.849,185.890 297.309 C 185.755 297.660,185.796 298.005,185.981 298.074 C 186.246 298.174,186.687 300.128,186.785 301.633 C 186.793 301.762,187.062 301.867,187.382 301.867 C 187.704 301.867,187.841 301.673,187.689 301.433 C 187.537 301.195,187.395 300.910,187.374 300.800 C 187.352 300.690,187.204 300.139,187.043 299.576 C 186.883 299.014,186.708 298.254,186.654 297.888 C 186.600 297.522,186.431 297.098,186.278 296.945 C 186.125 296.792,186.000 296.281,186.000 295.810 C 186.000 294.664,185.021 293.320,184.637 293.939 M212.480 301.280 C 212.216 301.544,212.000 302.163,212.000 302.656 C 212.000 303.149,211.803 303.675,211.562 303.823 C 211.322 303.972,211.207 304.523,211.307 305.047 C 211.407 305.571,211.334 306.000,211.145 306.000 C 210.593 306.000,210.747 307.999,211.300 308.013 C 211.593 308.020,211.494 308.257,211.062 308.585 C 210.637 308.906,210.298 309.708,210.262 310.472 C 210.228 311.202,210.021 311.928,209.802 312.084 C 209.113 312.576,209.200 314.314,209.926 314.591 C 210.441 314.787,210.490 314.737,210.133 314.377 C 209.777 314.018,209.840 313.596,210.400 312.600 C 210.938 311.643,211.015 311.175,210.690 310.850 C 210.364 310.524,210.480 310.089,211.123 309.219 C 212.031 307.991,212.300 306.968,211.601 307.399 C 211.340 307.561,211.331 307.308,211.576 306.664 C 211.781 306.124,211.831 305.564,211.686 305.419 C 211.541 305.275,211.598 305.031,211.812 304.878 C 212.457 304.416,213.238 302.800,212.816 302.800 C 212.346 302.800,212.765 301.521,213.371 301.106 C 213.662 300.907,213.665 300.810,213.380 300.806 C 213.149 300.803,212.744 301.016,212.480 301.280 M187.600 304.600 C 187.600 304.930,187.775 305.200,187.990 305.200 C 188.214 305.200,188.273 305.736,188.128 306.462 C 187.947 307.364,188.007 307.643,188.338 307.439 C 188.592 307.281,188.800 307.343,188.800 307.576 C 188.800 307.809,188.620 308.000,188.400 308.000 C 188.180 308.000,188.000 308.163,188.000 308.363 C 188.000 308.562,188.331 308.638,188.736 308.533 C 189.475 308.339,189.454 307.868,188.558 304.500 C 188.371 303.795,187.600 303.876,187.600 304.600 M188.800 309.933 C 188.800 310.153,188.980 310.393,189.200 310.467 C 189.420 310.540,189.645 311.709,189.700 313.065 C 189.755 314.420,189.884 315.446,189.986 315.345 C 190.089 315.243,190.401 315.844,190.679 316.680 L 191.186 318.200 190.948 316.800 C 190.818 316.030,190.723 315.048,190.737 314.618 C 190.751 314.189,190.604 313.646,190.411 313.413 C 190.218 313.180,190.001 312.286,189.930 311.426 C 189.820 310.102,188.800 308.754,188.800 309.933 M209.172 314.900 C 208.845 316.088,208.969 317.179,209.451 317.364 C 209.849 317.517,209.941 317.429,209.733 317.095 C 209.563 316.823,209.477 316.195,209.541 315.700 C 209.630 315.014,209.324 314.350,209.172 314.900 M191.206 319.700 C 191.203 320.305,191.380 320.800,191.600 320.800 C 192.106 320.800,192.106 319.983,191.600 319.200 C 191.298 318.732,191.211 318.843,191.206 319.700 M208.256 319.078 C 207.875 319.459,207.947 320.400,208.357 320.400 C 208.848 320.400,209.242 319.273,208.838 319.024 C 208.659 318.913,208.396 318.937,208.256 319.078 M208.046 321.500 C 207.997 322.457,208.563 322.707,209.038 321.938 C 209.208 321.664,209.149 321.585,208.892 321.743 C 208.655 321.890,208.378 321.693,208.277 321.305 C 208.137 320.768,208.082 320.815,208.046 321.500 M191.625 322.324 C 191.611 322.612,191.375 322.733,191.100 322.594 C 190.825 322.455,190.910 322.595,191.289 322.907 C 191.688 323.234,191.908 323.837,191.812 324.336 C 191.706 324.886,191.848 325.200,192.200 325.200 C 192.786 325.200,192.743 324.477,192.059 322.800 C 191.834 322.250,191.639 322.036,191.625 322.324 M207.558 323.076 C 207.476 323.697,207.226 325.816,206.964 328.107 C 206.732 330.134,206.779 330.383,207.350 330.164 C 208.113 329.871,208.169 329.529,207.554 328.914 C 207.226 328.586,207.271 328.140,207.727 327.227 C 208.067 326.545,208.170 326.095,207.957 326.227 C 207.610 326.441,207.726 325.314,208.216 323.713 C 208.298 323.445,208.193 323.119,207.983 322.989 C 207.772 322.859,207.581 322.898,207.558 323.076 M192.640 329.066 C 193.008 330.599,193.200 330.744,193.200 329.490 C 193.200 328.917,193.013 328.332,192.784 328.190 C 192.511 328.021,192.462 328.323,192.640 329.066 M192.006 330.680 C 192.003 330.944,192.241 331.304,192.536 331.480 C 193.260 331.912,193.628 333.515,193.058 333.750 C 192.743 333.880,192.779 334.064,193.174 334.339 C 193.673 334.687,193.673 334.832,193.174 335.446 C 192.858 335.835,192.810 336.028,193.066 335.874 C 193.322 335.721,193.613 335.821,193.713 336.098 C 193.813 336.374,193.892 335.594,193.889 334.365 C 193.885 332.634,192.821 329.386,192.794 331.024 C 192.791 331.231,192.613 331.130,192.400 330.800 C 192.163 330.433,192.010 330.386,192.006 330.680 M206.370 331.900 C 206.354 332.065,206.265 332.605,206.173 333.100 C 206.081 333.595,206.195 334.000,206.426 334.000 C 206.658 334.000,206.736 333.820,206.600 333.600 C 206.464 333.380,206.505 333.200,206.691 333.200 C 206.877 333.200,207.057 332.840,207.090 332.400 C 207.144 331.677,206.441 331.188,206.370 331.900 M205.844 336.100 C 205.700 337.035,205.506 338.286,205.413 338.879 C 205.299 339.604,205.400 339.898,205.722 339.774 C 206.011 339.662,206.235 338.564,206.289 336.995 C 206.392 334.004,206.219 333.657,205.844 336.100 M194.105 337.251 C 194.233 337.609,194.165 338.075,193.954 338.286 C 193.583 338.657,194.121 340.800,194.585 340.800 C 194.909 340.800,194.547 337.210,194.191 336.888 C 194.016 336.730,193.977 336.893,194.105 337.251 M205.055 342.932 C 204.919 344.070,204.824 345.630,204.844 346.400 L 204.882 347.800 205.209 346.410 C 205.389 345.645,205.445 344.872,205.333 344.692 C 205.222 344.512,205.347 344.105,205.610 343.788 C 205.874 343.470,205.973 342.907,205.831 342.537 C 205.689 342.167,205.774 341.740,206.020 341.588 C 206.326 341.399,206.283 341.241,205.885 341.088 C 205.440 340.917,205.246 341.348,205.055 342.932 M194.465 342.875 C 194.503 343.604,194.443 344.470,194.332 344.800 C 194.222 345.130,194.207 345.264,194.300 345.098 C 194.392 344.931,194.641 344.902,194.852 345.032 C 195.080 345.173,195.197 344.592,195.139 343.609 C 195.085 342.696,194.896 341.859,194.719 341.750 C 194.541 341.640,194.427 342.147,194.465 342.875 M194.877 348.700 C 194.914 349.305,195.114 350.024,195.320 350.298 C 195.526 350.571,195.610 351.235,195.507 351.772 C 195.405 352.309,195.471 352.985,195.654 353.274 C 195.853 353.588,195.990 352.806,195.994 351.333 C 195.998 349.730,195.825 348.796,195.500 348.664 C 195.124 348.511,195.148 348.356,195.600 348.037 C 196.118 347.670,196.105 347.611,195.504 347.606 C 194.995 347.602,194.827 347.894,194.877 348.700 M204.360 348.900 C 203.692 350.558,204.284 353.559,205.038 352.338 C 205.228 352.031,205.146 351.986,204.794 352.204 C 204.395 352.450,204.337 352.342,204.560 351.766 C 205.164 350.204,205.301 348.800,204.850 348.800 C 204.603 348.800,204.382 348.845,204.360 348.900 M203.662 356.355 C 203.399 357.948,203.283 359.411,203.405 359.608 C 203.675 360.045,204.800 359.662,204.800 359.134 C 204.800 358.924,204.620 358.864,204.400 359.000 C 204.180 359.136,204.000 358.977,204.000 358.647 C 204.000 358.317,204.180 357.936,204.400 357.800 C 204.861 357.515,204.886 355.363,204.442 354.230 C 204.228 353.684,204.001 354.301,203.662 356.355 M195.770 355.360 C 195.786 356.108,195.966 356.619,196.168 356.495 C 196.370 356.370,196.438 356.524,196.318 356.837 C 196.198 357.150,196.220 358.721,196.368 360.330 C 196.515 361.938,196.493 363.343,196.318 363.451 C 196.143 363.559,196.000 364.007,196.000 364.447 C 196.000 364.887,196.165 365.145,196.366 365.021 C 196.567 364.897,196.838 365.021,196.968 365.298 C 197.098 365.574,197.090 364.090,196.949 362.000 C 196.808 359.910,196.642 357.390,196.581 356.400 C 196.429 353.942,196.441 354.000,196.070 354.000 C 195.888 354.000,195.753 354.612,195.770 355.360 M203.167 361.500 C 203.149 361.885,203.047 363.907,202.941 365.993 C 202.740 369.953,203.010 370.805,203.383 367.383 C 203.818 363.386,203.882 360.800,203.545 360.800 C 203.355 360.800,203.185 361.115,203.167 361.500 M196.856 367.502 C 196.919 368.106,197.145 368.839,197.359 369.130 C 197.619 369.484,197.597 369.754,197.295 369.941 C 197.000 370.124,196.972 370.427,197.215 370.811 C 197.778 371.701,197.698 372.906,197.100 372.547 C 196.787 372.359,196.820 372.537,197.187 373.023 C 197.510 373.450,197.820 373.871,197.877 373.957 C 197.934 374.044,197.968 372.784,197.953 371.158 C 197.937 369.388,197.740 368.080,197.463 367.901 C 197.122 367.679,197.141 367.509,197.534 367.256 C 197.960 366.980,197.935 366.861,197.405 366.657 C 196.875 366.454,196.766 366.621,196.856 367.502 M202.800 370.733 C 202.800 371.137,202.668 371.598,202.507 371.760 C 202.346 371.921,202.188 373.166,202.155 374.526 C 202.123 375.887,202.183 376.659,202.289 376.242 C 202.427 375.696,202.568 375.624,202.790 375.984 C 202.964 376.266,203.077 375.812,203.049 374.942 C 203.022 374.094,202.820 373.265,202.600 373.100 C 202.333 372.900,202.334 372.700,202.601 372.500 C 203.034 372.176,203.406 370.000,203.029 370.000 C 202.903 370.000,202.800 370.330,202.800 370.733 M197.798 376.500 C 197.995 379.498,197.986 379.465,198.410 378.740 C 198.837 378.008,198.476 374.400,197.976 374.400 C 197.802 374.400,197.722 375.345,197.798 376.500 M201.859 380.100 C 201.487 383.199,201.546 386.400,201.976 386.400 C 202.574 386.400,202.991 385.464,202.471 385.290 C 201.871 385.090,201.850 383.200,202.448 383.200 C 202.748 383.200,202.839 382.413,202.724 380.823 C 202.618 379.357,202.700 378.538,202.938 378.685 C 203.150 378.816,203.195 378.716,203.038 378.462 C 202.468 377.540,202.106 378.042,201.859 380.100 M197.800 380.400 C 197.664 380.620,197.763 380.800,198.019 380.800 C 198.276 380.800,198.379 381.078,198.247 381.421 C 198.111 381.777,198.178 381.937,198.405 381.797 C 198.908 381.486,198.924 380.000,198.424 380.000 C 198.217 380.000,197.936 380.180,197.800 380.400 M198.480 382.480 C 197.898 383.062,197.848 384.000,198.400 384.000 C 198.620 384.000,198.797 384.855,198.794 385.900 C 198.789 387.325,198.685 387.650,198.376 387.200 C 198.050 386.723,197.989 386.799,198.083 387.569 C 198.147 388.101,198.470 388.610,198.800 388.699 C 199.333 388.843,199.333 388.814,198.800 388.437 C 198.367 388.131,198.344 388.011,198.718 388.006 C 199.103 388.002,199.211 387.235,199.140 385.000 C 199.087 383.350,199.025 382.000,199.002 382.000 C 198.979 382.000,198.744 382.216,198.480 382.480 M201.381 388.431 C 201.096 388.892,200.868 391.927,200.752 396.800 C 200.712 398.450,200.605 399.305,200.513 398.700 C 200.422 398.095,200.210 397.600,200.043 397.600 C 199.875 397.600,199.797 397.015,199.869 396.300 C 199.940 395.585,199.894 395.226,199.765 395.502 C 199.637 395.779,199.412 395.931,199.266 395.841 C 199.120 395.750,199.063 396.469,199.140 397.437 C 199.228 398.542,199.437 399.100,199.702 398.937 C 199.946 398.786,200.006 398.867,199.843 399.130 C 199.689 399.379,199.755 399.943,199.991 400.383 C 200.355 401.063,200.313 401.146,199.709 400.937 C 199.123 400.735,199.139 400.801,199.800 401.318 C 200.571 401.920,200.612 401.871,200.931 399.972 C 201.112 398.887,201.427 398.000,201.631 398.000 C 201.834 398.000,202.000 397.809,202.000 397.576 C 202.000 397.343,201.820 397.264,201.600 397.400 C 201.094 397.713,201.078 395.821,201.572 394.097 C 201.777 393.384,201.791 392.800,201.604 392.800 C 201.417 392.800,201.413 392.215,201.593 391.500 C 202.321 388.624,202.399 388.000,202.031 388.000 C 201.820 388.000,201.527 388.194,201.381 388.431 M198.958 391.797 C 198.985 393.230,199.169 393.997,199.485 393.998 C 200.132 394.001,200.065 390.552,199.407 390.006 C 199.028 389.691,198.925 390.100,198.958 391.797 M199.762 402.862 C 199.572 403.169,199.654 403.214,200.006 402.996 C 200.394 402.756,200.465 402.853,200.273 403.355 C 200.116 403.763,200.170 403.942,200.405 403.797 C 200.908 403.486,200.923 402.400,200.424 402.400 C 200.217 402.400,199.919 402.608,199.762 402.862 " stroke="none" fill="#fcfcfc" fill-rule="evenodd"></path><path id="path1" d="" stroke="none" fill="#100fcfc" fill-rule="evenodd"></path><path id="path2" d="" stroke="none" fill="#100fcfc" fill-rule="evenodd"></path><path id="path3" d="" stroke="none" fill="#100fcfc" fill-rule="evenodd"></path><path id="path4" d="" stroke="none" fill="#100fcfc" fill-rule="evenodd"></path></g></svg>